<svg width="343" height="432" viewBox="0 0 343 432" fill="none" xmlns="http://www.w3.org/2000/svg">
<path d="M296.285 100.87L294.61 109.942C294.376 111.214 294.258 111.85 294.301 112.471C294.338 113.022 294.468 113.563 294.685 114.07C294.929 114.643 295.322 115.157 296.109 116.183L301.721 123.506L292.648 121.831C291.377 121.596 290.741 121.479 290.119 121.521C289.569 121.559 289.028 121.689 288.52 121.906C287.947 122.15 287.434 122.543 286.408 123.33L279.085 128.942L280.76 119.869C280.995 118.597 281.112 117.962 281.069 117.34C281.032 116.789 280.902 116.249 280.685 115.741C280.441 115.168 280.048 114.655 279.261 113.628L273.649 106.306L282.722 107.98C283.993 108.215 284.629 108.333 285.251 108.29C285.801 108.252 286.342 108.123 286.85 107.906C287.423 107.662 287.936 107.269 288.962 106.482L296.285 100.87Z" fill="#EAEAEA"/>
<path d="M354.246 279.805L353.241 285.248C353.1 286.011 353.03 286.393 353.055 286.766C353.078 287.096 353.156 287.421 353.286 287.725C353.432 288.069 353.668 288.377 354.14 288.993L357.508 293.386L352.064 292.382C351.301 292.241 350.92 292.17 350.547 292.196C350.216 292.218 349.892 292.296 349.587 292.426C349.243 292.573 348.936 292.809 348.32 293.281L343.926 296.648L344.931 291.204C345.072 290.441 345.142 290.06 345.117 289.687C345.094 289.357 345.016 289.032 344.886 288.728C344.74 288.384 344.504 288.076 344.032 287.46L340.664 283.066L346.108 284.071C346.871 284.212 347.253 284.283 347.625 284.257C347.956 284.234 348.28 284.156 348.585 284.027C348.929 283.88 349.237 283.644 349.852 283.172L354.246 279.805Z" fill="#EAEAEA"/>
<path d="M5.92659 221.904L-2.35674 227.606C-3.51775 228.405 -4.09828 228.805 -4.54447 229.317C-4.93994 229.77 -5.25639 230.287 -5.48094 230.845C-5.73426 231.475 -5.82672 232.174 -6.01154 233.571L-7.32997 243.54L-13.0318 235.257C-13.8309 234.096 -14.2306 233.516 -14.7424 233.069C-15.1959 232.674 -15.7126 232.357 -16.2708 232.133C-16.9006 231.879 -17.5993 231.787 -18.9967 231.602L-28.966 230.284L-20.6826 224.582C-19.5216 223.783 -18.941 223.383 -18.4949 222.872C-18.0995 222.418 -17.783 221.901 -17.5584 221.343C-17.3051 220.713 -17.2126 220.014 -17.0278 218.617L-15.7094 208.648L-10.0076 216.931C-9.20832 218.092 -8.80877 218.673 -8.29699 219.119C-7.84348 219.514 -7.32678 219.831 -6.76855 220.055C-6.13872 220.309 -5.44008 220.401 -4.04262 220.586L5.92659 221.904Z" fill="#EAEAEA"/>
<g clip-path="url(#clip0_2167_6312)" filter="url(#filter0_d_2167_6312)">
<g clip-path="url(#clip1_2167_6312)">
<g clip-path="url(#clip2_2167_6312)" filter="url(#filter1_b_2167_6312)">
<rect width="216.235" height="166.542" transform="translate(-10.957 -133.061) rotate(-15)" fill="url(#paint0_linear_2167_6312)"/>
</g>
<rect width="216.235" height="48.3508" transform="translate(32.1475 27.8059) rotate(-15)" fill="white"/>
<rect x="45.3066" y="35.4035" width="194.746" height="26.8615" rx="5.37231" transform="rotate(-15 45.3066 35.4035)" fill="white"/>
<rect x="45.7179" y="35.6409" width="194.075" height="26.19" rx="5.03654" transform="rotate(-15 45.7179 35.6409)" stroke="#2B2828" stroke-opacity="0.07" stroke-width="0.671539"/>
<path opacity="0.5" d="M61.5344 47.3587L58.6738 48.1252L58.5373 49.904L57.6927 50.1303L58.3503 42.9949L59.2584 42.7516L63.3866 48.6047L62.5421 48.8309L61.5344 47.3587ZM58.7516 47.3257L61.0764 46.7028L59.0154 43.6245L58.9973 43.6294L58.7516 47.3257ZM65.6772 41.0317L66.4036 40.837L68.1435 47.3301L67.417 47.5247L67.2637 46.9526L67.2455 46.9575C67.068 47.3846 66.7245 47.8465 65.9799 48.0461C64.8175 48.3575 63.6454 47.6885 63.2366 46.1629C62.8278 44.6372 63.5084 43.4718 64.6708 43.1604C65.4154 42.9608 65.9389 43.171 66.3184 43.4975L66.3366 43.4927L65.6772 41.0317ZM65.8822 47.3909C66.7449 47.1597 67.0885 46.2988 66.7965 45.209C66.5045 44.1193 65.7765 43.5454 64.9137 43.7766C63.9602 44.0321 63.7198 45.0601 63.9631 45.9682C64.2065 46.8763 64.9287 47.6464 65.8822 47.3909ZM70.9691 39.6137L71.6956 39.419L73.4354 45.9121L72.7089 46.1068L72.5556 45.5346L72.5374 45.5395C72.3599 45.9667 72.0165 46.4286 71.2718 46.6281C70.1094 46.9396 68.9374 46.2705 68.5286 44.7449C68.1198 43.2193 68.8003 42.0539 69.9627 41.7424C70.7073 41.5429 71.2308 41.753 71.6103 42.0796L71.6285 42.0747L70.9691 39.6137ZM71.1741 45.9729C72.0368 45.7418 72.3804 44.8808 72.0884 43.7911C71.7964 42.7013 71.0684 42.1275 70.2057 42.3586C69.2521 42.6141 69.0117 43.6421 69.2551 44.5502C69.4984 45.4584 70.2206 46.2284 71.1741 45.9729ZM77.1778 38.6314C76.5481 38.7515 76.309 38.9129 76.4502 39.4396L76.6254 40.0934L77.5063 39.8574L77.6766 40.4931L76.7957 40.7291L77.8664 44.7248L77.1399 44.9195L76.0692 40.9238L75.4244 41.0965L75.2541 40.4608L75.8989 40.2881L75.7042 39.5616C75.4512 38.6171 75.8577 38.2454 76.4752 38.0799C76.6387 38.0361 76.8342 38.0032 77.0074 37.9957L77.1778 38.6314ZM81.429 43.2251C82.3553 42.9769 82.5398 42.2851 82.5364 41.9454L83.2629 41.7507C83.2579 42.6767 82.7799 43.5445 81.6266 43.8535C80.219 44.2307 79.1002 43.4696 78.7108 42.0166C78.2972 40.4728 78.9281 39.3401 80.2812 38.9776C81.7342 38.5882 82.7077 39.3883 83.1482 41.032L79.4884 42.0126C79.7123 42.8481 80.421 43.4952 81.429 43.2251ZM80.4515 39.6133C79.5797 39.8469 79.1186 40.6323 79.3181 41.3769L82.2513 40.591C82.0518 39.8463 81.3233 39.3797 80.4515 39.6133ZM86.5436 41.8547C87.4699 41.6065 87.6544 40.9147 87.6509 40.5749L88.3774 40.3803C88.3725 41.3063 87.8945 42.1741 86.7412 42.4831C85.3336 42.8602 84.2147 42.0991 83.8254 40.6461C83.4117 39.1023 84.0426 37.9697 85.3957 37.6071C86.8487 37.2178 87.8223 38.0179 88.2627 39.6616L84.603 40.6422C84.8269 41.4776 85.5356 42.1248 86.5436 41.8547ZM85.5661 38.2428C84.6943 38.4764 84.2331 39.2618 84.4327 40.0065L87.3659 39.2205C87.1664 38.4759 86.4379 38.0092 85.5661 38.2428ZM91.3805 34.1445L92.107 33.9498L93.8468 40.4429L93.1203 40.6375L92.967 40.0654L92.9488 40.0703C92.7713 40.4975 92.4278 40.9593 91.6832 41.1589C90.5208 41.4703 89.3488 40.8013 88.94 39.2757C88.5312 37.75 89.2117 36.5847 90.3741 36.2732C91.1187 36.0737 91.6422 36.2838 92.0217 36.6104L92.0399 36.6055L91.3805 34.1445ZM91.5855 40.5037C92.4482 40.2726 92.7918 39.4116 92.4998 38.3218C92.2078 37.2321 91.4798 36.6582 90.6171 36.8894C89.6635 37.1449 89.4231 38.1729 89.6665 39.081C89.9098 39.9891 90.632 40.7592 91.5855 40.5037ZM95.9496 34.7792C97.112 34.4678 98.2841 35.1368 98.6929 36.6624C99.1017 38.188 98.4212 39.3534 97.2588 39.6649C96.5141 39.8644 95.9857 39.6361 95.6184 39.355L95.6002 39.3598L95.7535 39.932L95.027 40.1266L93.2872 33.6336L94.0137 33.4389L94.6732 35.8999L94.6913 35.895C94.8567 35.4225 95.205 34.9788 95.9496 34.7792ZM97.0158 39.0487C97.9693 38.7932 98.2097 37.7652 97.9664 36.8571C97.723 35.9489 97.0008 35.1789 96.0473 35.4344C95.1846 35.6655 94.8411 36.5265 95.133 37.6163C95.425 38.706 96.1531 39.2798 97.0158 39.0487ZM102.228 34.4986C102.13 34.1354 101.848 33.8801 101.103 34.0797C100.222 34.3157 99.9998 34.6478 100.134 35.332L99.408 35.5267C99.2149 34.6246 99.5888 33.8041 100.933 33.444C101.814 33.208 102.696 33.3413 102.996 34.4583L103.599 36.7105C103.696 37.0737 103.813 37.2565 104.262 37.0779L104.398 37.5864C104.225 37.7011 104.127 37.7369 103.991 37.7734C103.555 37.8902 103.26 37.8428 102.997 37.3683L102.978 37.3731C102.805 37.8869 102.36 38.298 101.597 38.5024C100.662 38.7531 99.928 38.3754 99.7187 37.5945C99.4364 36.541 100.144 36.0593 101.282 35.5111C102.024 35.1565 102.352 34.9618 102.228 34.4986ZM101.499 37.8473C102.362 37.6161 102.911 37.0504 102.673 36.1605L102.466 35.3886C102.366 35.5613 101.955 35.8077 101.492 36.0389C100.644 36.4706 100.287 36.8095 100.435 37.3635C100.557 37.8175 100.9 38.0079 101.499 37.8473ZM107.715 33.5539C107.542 33.0551 107.022 32.4937 106.096 32.7419C104.997 33.0364 104.83 34.0837 105.063 34.9554C105.297 35.8272 105.965 36.6507 107.064 36.3562C107.999 36.1056 108.163 35.3708 108.051 34.8071L108.777 34.6125C108.996 35.6829 108.379 36.6853 107.234 36.9919C105.881 37.3545 104.726 36.6031 104.337 35.1501C103.948 33.6971 104.572 32.4688 105.925 32.1062C107.07 31.7996 108.055 32.3532 108.441 33.3593L107.715 33.5539ZM108.462 29.5674L109.189 29.3727L110.221 33.2232L111.813 30.665L112.721 30.4217L111.374 32.6222L114.153 35.002L113.29 35.2331L110.979 33.1853L110.44 34.0405L110.929 35.8658L110.202 36.0605L108.462 29.5674Z" fill="#2B2828"/>
</g>
<g clip-path="url(#clip3_2167_6312)">
<g clip-path="url(#clip4_2167_6312)" filter="url(#filter2_b_2167_6312)">
<rect width="216.235" height="166.542" transform="translate(46.0752 79.7864) rotate(-15)" fill="url(#paint1_linear_2167_6312)"/>
<g filter="url(#filter3_ddd_2167_6312)">
<rect x="140.008" y="98.6673" width="49.6952" height="49.6939" rx="14.494" transform="rotate(-15 140.008 98.6673)" fill="#9481FF" shape-rendering="crispEdges"/>
<rect x="141.593" y="99.5824" width="47.1069" height="47.1056" rx="13.1999" transform="rotate(-15 141.593 99.5824)" stroke="white" stroke-width="2.58822" shape-rendering="crispEdges"/>
<g filter="url(#filter4_ddd_2167_6312)">
<path d="M160.314 114.448C159.863 112.768 159.638 111.928 159.793 111.198C159.93 110.557 160.266 109.975 160.753 109.536C161.307 109.037 162.147 108.812 163.827 108.362L172.228 106.111C173.908 105.661 174.748 105.436 175.477 105.591C176.119 105.727 176.701 106.063 177.139 106.551C177.638 107.105 177.864 107.945 178.314 109.625L179.761 115.025C180.211 116.705 180.436 117.545 180.281 118.275C180.145 118.916 179.809 119.498 179.321 119.937C178.767 120.436 177.927 120.661 176.247 121.111L173.731 121.785C173.106 121.953 172.794 122.036 172.512 122.178C172.262 122.303 172.03 122.461 171.822 122.649C171.588 122.86 171.397 123.12 171.014 123.641L169.14 126.188C168.813 126.633 168.649 126.855 168.474 126.902C168.322 126.943 168.159 126.912 168.033 126.819C167.887 126.711 167.815 126.445 167.672 125.912L167.047 123.576C166.117 123.826 165.652 123.95 165.243 123.95C164.133 123.95 163.108 123.358 162.553 122.397C162.349 122.043 162.224 121.578 161.975 120.648L160.314 114.448Z" fill="white"/>
<path d="M160.314 114.448C159.863 112.768 159.638 111.928 159.793 111.198C159.93 110.557 160.266 109.975 160.753 109.536C161.307 109.037 162.147 108.812 163.827 108.362L172.228 106.111C173.908 105.661 174.748 105.436 175.477 105.591C176.119 105.727 176.701 106.063 177.139 106.551C177.638 107.105 177.864 107.945 178.314 109.625L179.761 115.025C180.211 116.705 180.436 117.545 180.281 118.275C180.145 118.916 179.809 119.498 179.321 119.937C178.767 120.436 177.927 120.661 176.247 121.111L173.731 121.785C173.106 121.953 172.794 122.036 172.512 122.178C172.262 122.303 172.03 122.461 171.822 122.649C171.588 122.86 171.397 123.12 171.014 123.641L169.14 126.188C168.813 126.633 168.649 126.855 168.474 126.902C168.322 126.943 168.159 126.912 168.033 126.819C167.887 126.711 167.815 126.445 167.672 125.912L167.047 123.576C166.117 123.826 165.652 123.95 165.243 123.95C164.133 123.95 163.108 123.358 162.553 122.397C162.349 122.043 162.224 121.578 161.975 120.648L160.314 114.448Z" stroke="white" stroke-width="2.48469" stroke-linecap="round" stroke-linejoin="round"/>
</g>
<rect x="160.831" y="112.38" width="16.5646" height="2.07058" rx="1.03529" transform="rotate(-15 160.831 112.38)" fill="#9481FF"/>
<rect x="161.902" y="116.38" width="10.3529" height="2.07058" rx="1.03529" transform="rotate(-15 161.902 116.38)" fill="#9481FF"/>
</g>
<path opacity="0.3" d="M116.393 176.156C115.766 174.906 114.535 174.568 113.134 174.944C110.929 175.535 110.541 177.822 111.006 179.56C111.476 181.311 112.696 183.167 115.031 182.542C116.692 182.097 117.734 180.538 117.268 178.8L114.246 179.61L113.967 178.572L118.158 177.449L119.451 182.275L118.672 182.484L117.932 181.278L117.906 181.285C117.466 182.445 116.736 183.197 115.309 183.58C112.611 184.303 110.59 182.675 109.839 179.873C109.091 177.084 110.287 174.594 112.856 173.906C115.204 173.277 116.764 174.166 117.561 175.843L116.393 176.156ZM119.633 173.759C119.347 173.835 118.925 173.712 118.817 173.31C118.709 172.908 119.013 172.59 119.299 172.513C119.597 172.433 120.007 172.56 120.114 172.962C120.222 173.364 119.931 173.679 119.633 173.759ZM119.458 175.182L120.496 174.904L122.268 181.52L121.231 181.798L119.458 175.182ZM121.559 174.619L122.688 174.317L126.012 179.405L126.025 179.401L126.359 173.333L127.488 173.03L126.886 180.283L125.706 180.599L121.559 174.619ZM132.688 177.95C134.011 177.595 134.274 176.607 134.269 176.122L135.307 175.843C135.3 177.166 134.617 178.406 132.97 178.847C130.959 179.386 129.361 178.299 128.804 176.223C128.213 174.018 129.115 172.4 131.048 171.882C133.123 171.326 134.514 172.469 135.143 174.817L129.915 176.218C130.235 177.411 131.248 178.336 132.688 177.95ZM131.291 172.79C130.046 173.124 129.387 174.246 129.672 175.309L133.862 174.187C133.577 173.123 132.536 172.456 131.291 172.79ZM145.064 168.126C146.4 167.768 147.261 168.386 147.633 169.774L148.87 174.392L147.832 174.67L146.664 170.311C146.435 169.455 146.086 168.826 145.048 169.104C144.01 169.382 143.559 170.295 143.834 171.32L144.939 175.446L143.902 175.724L142.734 171.365C142.504 170.508 142.155 169.879 141.117 170.157C140.079 170.435 139.629 171.348 139.903 172.373L141.009 176.499L139.971 176.777L138.198 170.161L139.236 169.883L139.448 170.674L139.474 170.667C139.699 170.106 140.134 169.447 141.133 169.179C142.08 168.926 142.733 169.182 143.203 169.848L143.229 169.841C143.516 169.097 144.065 168.394 145.064 168.126ZM153.073 172.487C154.396 172.133 154.66 171.145 154.655 170.659L155.693 170.381C155.686 171.704 155.003 172.944 153.355 173.385C151.345 173.924 149.746 172.837 149.19 170.761C148.599 168.556 149.5 166.937 151.433 166.42C153.509 165.863 154.9 167.006 155.529 169.354L150.301 170.755C150.621 171.949 151.633 172.873 153.073 172.487ZM151.677 167.328C150.431 167.661 149.772 168.783 150.057 169.847L154.248 168.724C153.963 167.661 152.922 166.994 151.677 167.328ZM160.903 162.2C160.004 162.371 159.662 162.602 159.864 163.354L160.114 164.288L161.373 163.951L161.616 164.859L160.358 165.196L161.887 170.904L160.849 171.183L159.32 165.474L158.399 165.721L158.155 164.813L159.076 164.566L158.798 163.528C158.437 162.179 159.018 161.648 159.9 161.412C160.133 161.349 160.413 161.302 160.66 161.291L160.903 162.2ZM166.782 168.814C168.105 168.46 168.369 167.471 168.364 166.986L169.402 166.708C169.395 168.031 168.712 169.27 167.064 169.712C165.053 170.251 163.455 169.163 162.899 167.088C162.308 164.882 163.209 163.264 165.142 162.746C167.218 162.19 168.609 163.333 169.238 165.681L164.01 167.082C164.33 168.276 165.342 169.2 166.782 168.814ZM165.386 163.654C164.14 163.988 163.481 165.11 163.766 166.174L167.957 165.051C167.672 163.987 166.631 163.321 165.386 163.654ZM173.894 166.909C175.217 166.554 175.481 165.566 175.476 165.08L176.514 164.802C176.507 166.125 175.824 167.365 174.176 167.806C172.165 168.345 170.567 167.258 170.011 165.182C169.42 162.977 170.321 161.359 172.254 160.841C174.33 160.284 175.721 161.427 176.35 163.775L171.122 165.176C171.441 166.37 172.454 167.294 173.894 166.909ZM172.497 161.749C171.252 162.082 170.593 163.204 170.878 164.268L175.069 163.145C174.784 162.082 173.743 161.415 172.497 161.749ZM180.609 155.946L181.647 155.668L184.132 164.944L183.095 165.222L182.876 164.405L182.85 164.412C182.596 165.022 182.105 165.682 181.042 165.967C179.381 166.412 177.707 165.456 177.123 163.276C176.539 161.097 177.511 159.432 179.171 158.987C180.235 158.702 180.983 159.002 181.525 159.469L181.551 159.462L180.609 155.946ZM180.902 165.031C182.135 164.7 182.625 163.471 182.208 161.914C181.791 160.357 180.751 159.537 179.519 159.867C178.156 160.232 177.813 161.701 178.161 162.998C178.508 164.296 179.54 165.396 180.902 165.031ZM186.942 156.905C188.603 156.46 190.277 157.416 190.861 159.595C191.445 161.775 190.473 163.44 188.812 163.885C187.748 164.17 186.994 163.843 186.469 163.442L186.443 163.449L186.662 164.266L185.624 164.544L183.139 155.268L184.176 154.99L185.118 158.506L185.144 158.499C185.381 157.824 185.878 157.19 186.942 156.905ZM188.465 163.004C189.827 162.639 190.171 161.171 189.823 159.873C189.475 158.576 188.444 157.476 187.082 157.841C185.849 158.171 185.358 159.401 185.775 160.958C186.193 162.515 187.233 163.334 188.465 163.004ZM195.716 156.556C195.577 156.037 195.173 155.673 194.11 155.958C192.851 156.295 192.533 156.769 192.726 157.747L191.688 158.025C191.412 156.736 191.946 155.564 193.866 155.05C195.125 154.712 196.385 154.903 196.813 156.499L197.675 159.716C197.814 160.235 197.981 160.496 198.622 160.241L198.817 160.967C198.569 161.131 198.429 161.182 198.235 161.235C197.612 161.401 197.191 161.334 196.814 160.656L196.788 160.663C196.54 161.397 195.905 161.984 194.815 162.276C193.479 162.634 192.431 162.095 192.132 160.979C191.729 159.474 192.74 158.786 194.365 158.003C195.426 157.496 195.893 157.218 195.716 156.556ZM194.676 161.34C195.908 161.01 196.693 160.202 196.352 158.93L196.057 157.828C195.914 158.074 195.327 158.426 194.665 158.757C193.453 159.373 192.944 159.858 193.156 160.649C193.329 161.298 193.819 161.57 194.676 161.34ZM203.36 155.259C203.114 154.546 202.37 153.744 201.047 154.099C199.477 154.519 199.239 156.016 199.572 157.261C199.906 158.506 200.861 159.683 202.431 159.262C203.767 158.904 204 157.854 203.84 157.049L204.878 156.771C205.19 158.3 204.309 159.732 202.674 160.17C200.741 160.688 199.091 159.615 198.534 157.539C197.978 155.463 198.871 153.709 200.804 153.191C202.438 152.753 203.846 153.544 204.398 154.981L203.36 155.259ZM204.234 149.616L205.271 149.338L206.745 154.838L209.02 151.184L210.317 150.836L208.392 153.98L212.362 157.38L211.13 157.71L207.829 154.784L207.058 156.006L207.757 158.614L206.719 158.892L204.234 149.616ZM218.968 155.804C216.944 156.346 215.343 155.246 214.79 153.183C214.237 151.121 215.074 149.367 217.098 148.825C219.109 148.286 220.711 149.386 221.264 151.449C221.816 153.512 220.979 155.265 218.968 155.804ZM218.725 154.896C220.204 154.5 220.605 153.141 220.226 151.727C219.847 150.313 218.82 149.337 217.341 149.733C215.85 150.133 215.449 151.491 215.828 152.905C216.207 154.319 217.233 155.296 218.725 154.896ZM224.814 146.757C226.021 146.434 227.21 146.824 227.617 148.342L228.854 152.961L227.816 153.239L226.648 148.88C226.419 148.024 225.836 147.457 224.798 147.735C223.631 148.048 223.05 148.996 223.325 150.021L224.43 154.146L223.393 154.424L221.62 147.808L222.658 147.53L222.87 148.321L222.896 148.314C223.121 147.753 223.686 147.06 224.814 146.757ZM234.655 144.12C235.861 143.797 237.05 144.188 237.457 145.705L238.695 150.324L237.657 150.602L236.489 146.243C236.259 145.387 235.676 144.82 234.638 145.098C233.471 145.411 232.891 146.359 233.165 147.384L234.271 151.509L233.233 151.787L230.747 142.512L231.785 142.234L232.71 145.684L232.736 145.677C232.961 145.117 233.526 144.423 234.655 144.12ZM243.197 149.312C241.173 149.854 239.571 148.754 239.019 146.691C238.466 144.629 239.303 142.875 241.327 142.333C243.338 141.794 244.94 142.894 245.492 144.957C246.045 147.02 245.208 148.773 243.197 149.312ZM242.954 148.404C244.433 148.008 244.833 146.649 244.455 145.235C244.076 143.821 243.049 142.844 241.57 143.241C240.078 143.64 239.678 144.999 240.057 146.413C240.436 147.827 241.462 148.804 242.954 148.404ZM245.06 141.527L246.202 141.221L249.177 146.305L249.203 146.298L249.212 140.415L250.314 140.119L253.277 145.207L253.303 145.2L253.337 139.309L254.479 139.003L254.137 146.186L253.034 146.482L250.079 141.42L250.053 141.427L250.05 147.281L248.948 147.577L245.06 141.527ZM114.561 198.173L113.264 198.521L114.331 202.503C114.532 203.256 114.982 203.274 115.847 202.973L116.09 203.881C115.871 203.996 115.605 204.095 115.333 204.168C114.451 204.404 113.682 204.234 113.321 202.885L112.226 198.799L111.253 199.059L111.009 198.151L111.982 197.891L111.391 195.685L112.429 195.407L113.02 197.612L114.318 197.265L114.561 198.173ZM120.223 202.969C118.199 203.511 116.597 202.411 116.044 200.348C115.492 198.285 116.329 196.531 118.353 195.989C120.363 195.45 121.965 196.55 122.518 198.613C123.071 200.676 122.234 202.43 120.223 202.969ZM119.979 202.06C121.458 201.664 121.859 200.305 121.48 198.891C121.101 197.477 120.075 196.501 118.596 196.897C117.104 197.297 116.703 198.656 117.082 200.07C117.461 201.484 118.488 202.46 119.979 202.06ZM124.978 194.408L126.107 194.106L129.431 199.194L129.444 199.191L129.778 193.122L130.907 192.82L130.306 200.072L129.125 200.388L124.978 194.408ZM136.402 198.633C134.378 199.176 132.777 198.075 132.224 196.013C131.671 193.95 132.508 192.196 134.532 191.654C136.543 191.115 138.145 192.215 138.697 194.278C139.25 196.341 138.413 198.094 136.402 198.633ZM136.159 197.725C137.638 197.329 138.038 195.97 137.66 194.556C137.281 193.142 136.254 192.166 134.775 192.562C133.283 192.962 132.883 194.32 133.262 195.734C133.641 197.149 134.667 198.125 136.159 197.725ZM142.05 190.807L140.753 191.155L141.82 195.138C142.022 195.89 142.472 195.908 143.336 195.607L143.58 196.515C143.36 196.63 143.095 196.729 142.822 196.802C141.94 197.038 141.172 196.869 140.81 195.519L139.715 191.433L138.742 191.694L138.499 190.785L139.472 190.525L138.881 188.319L139.919 188.041L140.51 190.247L141.807 189.899L142.05 190.807ZM147.417 194.709C148.74 194.354 149.004 193.366 148.999 192.88L150.037 192.602C150.03 193.925 149.347 195.165 147.699 195.606C145.688 196.145 144.09 195.058 143.534 192.982C142.943 190.777 143.844 189.159 145.777 188.641C147.853 188.084 149.244 189.227 149.873 191.575L144.645 192.976C144.964 194.17 145.977 195.094 147.417 194.709ZM146.02 189.549C144.775 189.882 144.116 191.004 144.401 192.068L148.592 190.945C148.307 189.882 147.266 189.215 146.02 189.549ZM157.616 192.949C155.592 193.491 153.99 192.391 153.437 190.328C152.885 188.266 153.722 186.512 155.746 185.97C157.756 185.431 159.358 186.531 159.911 188.594C160.464 190.656 159.627 192.41 157.616 192.949ZM157.372 192.041C158.851 191.645 159.252 190.286 158.873 188.872C158.494 187.458 157.468 186.481 155.989 186.878C154.497 187.277 154.096 188.636 154.475 190.05C154.854 191.464 155.881 192.441 157.372 192.041ZM163.462 183.902C164.668 183.579 165.858 183.969 166.264 185.487L167.502 190.106L166.464 190.384L165.296 186.025C165.066 185.168 164.484 184.602 163.446 184.88C162.278 185.192 161.698 186.141 161.972 187.165L163.078 191.291L162.04 191.569L160.267 184.953L161.305 184.675L161.517 185.466L161.543 185.459C161.768 184.898 162.333 184.204 163.462 183.902ZM170.289 181.072C170.656 180.834 171.091 180.954 171.244 181.525C171.376 182.018 171.135 182.361 170.745 182.465C170.265 182.593 169.911 182.257 169.748 181.648C169.563 180.96 169.553 179.781 170.517 179.328L170.69 179.977C170.313 180.175 170.16 180.592 170.289 181.072ZM172.196 180.561C172.563 180.323 172.998 180.443 173.151 181.014C173.283 181.507 173.042 181.85 172.652 181.954C172.172 182.082 171.818 181.746 171.655 181.137C171.471 180.449 171.46 179.27 172.424 178.817L172.597 179.466C172.22 179.664 172.067 180.081 172.196 180.561ZM179.283 186.949L177.075 178.711L173.988 179.538L173.71 178.5L181.052 176.533L181.33 177.571L178.243 178.398L180.45 186.636L179.283 186.949ZM186.22 185.285C184.196 185.827 182.594 184.727 182.042 182.664C181.489 180.601 182.326 178.847 184.35 178.305C186.361 177.766 187.963 178.867 188.515 180.929C189.068 182.992 188.231 184.746 186.22 185.285ZM185.977 184.376C187.456 183.98 187.856 182.621 187.477 181.207C187.099 179.793 186.072 178.817 184.593 179.213C183.101 179.613 182.701 180.972 183.08 182.386C183.458 183.8 184.485 184.776 185.977 184.376ZM188.159 174.629L189.197 174.351L190.671 179.851L192.945 176.197L194.242 175.849L192.318 178.993L196.288 182.392L195.055 182.723L191.755 179.797L190.983 181.019L191.682 183.626L190.644 183.904L188.159 174.629ZM199.414 180.776C200.737 180.421 201.001 179.433 200.996 178.948L202.034 178.67C202.027 179.993 201.344 181.232 199.696 181.674C197.685 182.213 196.087 181.125 195.531 179.049C194.94 176.844 195.841 175.226 197.774 174.708C199.85 174.152 201.241 175.295 201.87 177.643L196.642 179.044C196.961 180.237 197.974 181.162 199.414 180.776ZM198.017 175.616C196.772 175.95 196.113 177.072 196.398 178.136L200.589 177.013C200.304 175.949 199.263 175.282 198.017 175.616ZM205.327 172.684C206.534 172.361 207.723 172.751 208.129 174.269L209.367 178.888L208.329 179.166L207.161 174.807C206.932 173.951 206.349 173.384 205.311 173.662C204.143 173.975 203.563 174.923 203.838 175.948L204.943 180.073L203.905 180.351L202.132 173.735L203.17 173.457L203.382 174.248L203.408 174.241C203.633 173.68 204.198 172.987 205.327 172.684ZM216.405 177.002L214.198 168.764L211.11 169.591L210.832 168.553L218.175 166.586L218.453 167.624L215.365 168.451L217.573 176.689L216.405 177.002ZM221.954 168.229C222.201 168.163 222.386 168.127 222.575 168.105L222.853 169.142L222.827 169.149C221.324 169.302 220.596 170.581 220.975 171.995L221.921 175.524L220.883 175.802L219.11 169.186L220.148 168.908L220.499 170.218L220.525 170.211C220.642 169.248 221.007 168.483 221.954 168.229ZM227.998 168.612C227.859 168.093 227.455 167.728 226.391 168.013C225.133 168.351 224.815 168.825 225.007 169.803L223.969 170.081C223.694 168.792 224.228 167.62 226.148 167.105C227.406 166.768 228.667 166.959 229.095 168.554L229.957 171.772C230.096 172.291 230.263 172.552 230.904 172.297L231.098 173.023C230.85 173.187 230.711 173.238 230.516 173.29C229.894 173.457 229.472 173.389 229.096 172.711L229.07 172.718C228.822 173.452 228.187 174.04 227.097 174.332C225.761 174.69 224.712 174.15 224.413 173.035C224.01 171.53 225.022 170.842 226.647 170.058C227.707 169.552 228.175 169.274 227.998 168.612ZM226.957 173.396C228.19 173.066 228.974 172.257 228.634 170.986L228.338 169.883C228.196 170.13 227.609 170.482 226.946 170.812C225.735 171.429 225.225 171.913 225.437 172.705C225.611 173.353 226.101 173.625 226.957 173.396ZM233.501 165.135C234.707 164.812 235.896 165.202 236.303 166.72L237.54 171.339L236.503 171.617L235.335 167.258C235.105 166.402 234.522 165.835 233.484 166.113C232.317 166.426 231.737 167.374 232.011 168.399L233.117 172.524L232.079 172.802L230.306 166.186L231.344 165.908L231.556 166.699L231.582 166.692C231.807 166.131 232.372 165.438 233.501 165.135ZM240.759 166.263C242.017 166.232 243.405 166.069 243.843 167.703C244.166 168.91 243.275 169.997 241.771 170.4C239.747 170.942 238.555 170.232 238.108 168.823L239.146 168.545C239.409 169.267 239.867 169.937 241.527 169.492C242.656 169.189 242.941 168.487 242.822 168.046C242.565 167.086 241.682 167.267 240.672 167.288C239.595 167.312 238.058 167.599 237.641 166.042C237.363 165.004 238.058 163.914 239.615 163.497C241.263 163.055 242.395 163.753 242.805 164.867L241.767 165.145C241.528 164.667 241.104 164.071 239.858 164.405C238.924 164.655 238.519 165.167 238.658 165.686C238.867 166.464 239.779 166.289 240.759 166.263ZM245.95 160.117C245.051 160.288 244.709 160.519 244.911 161.271L245.161 162.205L246.419 161.868L246.663 162.776L245.404 163.114L246.934 168.822L245.896 169.1L244.367 163.392L243.445 163.638L243.202 162.73L244.123 162.484L243.845 161.446C243.484 160.096 244.064 159.565 244.947 159.329C245.18 159.266 245.459 159.219 245.707 159.209L245.95 160.117ZM251.829 166.731C253.152 166.377 253.416 165.389 253.411 164.903L254.449 164.625C254.442 165.948 253.759 167.188 252.111 167.629C250.1 168.168 248.502 167.081 247.946 165.005C247.355 162.8 248.256 161.181 250.189 160.664C252.265 160.107 253.656 161.25 254.285 163.598L249.057 164.999C249.376 166.193 250.389 167.117 251.829 166.731ZM250.432 161.572C249.187 161.905 248.528 163.027 248.813 164.091L253.004 162.968C252.718 161.905 251.678 161.238 250.432 161.572ZM257.392 158.734C257.638 158.668 257.823 158.632 258.012 158.609L258.29 159.647L258.264 159.654C256.761 159.806 256.034 161.086 256.413 162.5L257.358 166.029L256.32 166.307L254.547 159.69L255.585 159.412L255.936 160.723L255.962 160.716C256.08 159.753 256.445 158.987 257.392 158.734ZM259.694 156.879C259.327 157.117 258.891 156.997 258.738 156.426C258.606 155.933 258.848 155.59 259.237 155.486C259.717 155.357 260.071 155.693 260.235 156.303C260.419 156.991 260.429 158.17 259.466 158.623L259.292 157.974C259.67 157.776 259.823 157.359 259.694 156.879ZM261.601 156.368C261.234 156.606 260.798 156.486 260.645 155.915C260.513 155.422 260.755 155.079 261.144 154.975C261.624 154.846 261.979 155.182 262.142 155.792C262.326 156.48 262.336 157.659 261.373 158.112L261.199 157.463C261.577 157.265 261.73 156.848 261.601 156.368Z" fill="#313037"/>
<g filter="url(#filter5_ddddi_2167_6312)">
<path d="M111.964 85.4855L114.916 86.4344L116.567 83.8102L119.016 85.7114L121.465 83.8102L123.116 86.4344L126.067 85.4855L126.721 88.516L129.819 88.6338L129.397 91.7051L132.268 92.8755L130.821 95.6174L133.119 97.699L130.821 99.7806L132.268 102.522L129.397 103.693L129.819 106.764L126.721 106.882L126.067 109.912L123.116 108.964L121.465 111.588L119.016 109.686L116.567 111.588L114.916 108.964L111.964 109.912L111.31 106.882L108.212 106.764L108.635 103.693L105.764 102.522L107.21 99.7806L104.913 97.6989L107.21 95.6174L105.763 92.8755L108.634 91.7053L108.213 88.6337L111.31 88.516L111.964 85.4855Z" fill="#9481FF"/>
<path fill-rule="evenodd" clip-rule="evenodd" d="M118.618 99.3381C118.807 99.1828 119.085 99.2098 119.24 99.3982C119.55 99.7748 120.107 99.8286 120.484 99.5183C120.861 99.208 120.914 98.6512 120.604 98.2745C120.449 98.0863 120.476 97.8079 120.664 97.6526C120.853 97.4975 121.131 97.5245 121.286 97.7128C121.907 98.466 121.799 99.5797 121.046 100.2C120.292 100.821 119.178 100.713 118.558 99.96C118.403 99.7715 118.43 99.4932 118.618 99.3381Z" fill="white"/>
<path d="M114.119 98.3924L114.728 98.7299C115.265 99.0281 115.902 99.0898 116.486 98.9008L117.15 98.6853L116.812 99.2965C116.514 99.833 116.453 100.47 116.642 101.055L116.857 101.717L116.248 101.379C115.71 101.081 115.074 101.02 114.49 101.209L113.825 101.424L114.164 100.813C114.461 100.276 114.523 99.6397 114.333 99.0546L114.119 98.3924Z" fill="white"/>
<path d="M120.688 92.9847L121.297 93.3219C121.835 93.6202 122.471 93.6821 123.055 93.4929L123.719 93.2776L123.381 93.8886C123.083 94.4251 123.022 95.0617 123.212 95.6468L123.426 96.309L122.817 95.9716C122.279 95.6735 121.643 95.6116 121.059 95.8007L120.395 96.0162L120.733 95.4052C121.031 94.8686 121.092 94.2318 120.902 93.6469L120.688 92.9847Z" fill="white"/>
<path d="M112.357 86.162L114.756 86.9335L115.145 87.0583L115.362 86.7132L116.704 84.5796L118.695 86.1254L119.017 86.3755L119.339 86.1254L121.33 84.5796L122.673 86.7132L122.89 87.0583L123.278 86.9334L125.677 86.162L126.209 88.6258L126.295 89.0243L126.703 89.0399L129.221 89.1357L128.878 91.6327L128.823 92.0367L129.2 92.1906L131.534 93.1421L130.358 95.3713L130.168 95.7318L130.47 96.0056L132.338 97.6981L130.47 99.3903L130.168 99.6642L130.358 100.025L131.535 102.254L129.2 103.205L128.823 103.359L128.878 103.763L129.222 106.26L126.703 106.356L126.295 106.372L126.209 106.77L125.678 109.234L123.278 108.463L122.89 108.338L122.673 108.683L121.33 110.816L119.339 109.271L119.017 109.021L118.695 109.271L116.704 110.816L115.362 108.683L115.145 108.338L114.757 108.462L112.357 109.234L111.825 106.77L111.739 106.372L111.332 106.356L108.813 106.26L109.156 103.763L109.211 103.359L108.834 103.205L106.5 102.254L107.676 100.025L107.867 99.6641L107.564 99.3904L105.697 97.698L107.565 96.0055L107.867 95.7318L107.676 95.3713L106.5 93.1421L108.834 92.1907L109.212 92.0367L109.156 91.6328L108.813 89.1356L111.332 89.0399L111.739 89.0244L111.825 88.6258L112.357 86.162Z" stroke="white" stroke-width="1.34308"/>
</g>
<g filter="url(#filter6_ddddi_2167_6312)">
<path d="M192.511 83.7872L196.52 83.5666L195.858 71.5405L191.849 71.7611L192.511 83.7872ZM213.952 71.5496C213.891 70.4423 212.945 69.5948 211.837 69.6557L205.509 70.004L206.214 65.3715C206.228 65.2701 206.237 65.1641 206.231 65.0538C206.208 64.638 206.018 64.2715 205.732 64.0158L204.607 63.0172L198.37 69.9799C198.03 70.3654 197.832 70.879 197.862 71.4302L198.414 81.452C198.475 82.5593 199.421 83.4069 200.528 83.3459L209.548 82.8494C210.38 82.8036 211.064 82.2583 211.325 81.5252L213.958 74.2936C214.035 74.0581 214.077 73.8096 214.063 73.554L213.957 71.6349L213.946 71.6255L213.952 71.5496Z" fill="#9481FF"/>
<path d="M191.665 83.8339L191.711 84.6786L192.556 84.6321L196.565 84.4115L197.41 84.365L197.363 83.5202L196.701 71.4942L196.655 70.6497L195.81 70.6962L191.801 70.9168L190.957 70.9631L191.003 71.8079L191.665 83.8339ZM214.767 71.2261C214.548 69.7905 213.27 68.7298 211.79 68.8112L206.5 69.1025L207.049 65.4989L207.05 65.4918C207.069 65.3598 207.085 65.1935 207.075 65.0075C207.039 64.3565 206.739 63.7836 206.295 63.3859L206.292 63.3833L205.167 62.3847L204.537 61.826L203.975 62.4531L197.739 69.4157L197.735 69.4201C197.256 69.9623 196.973 70.6906 197.016 71.477L197.568 81.4987C197.654 83.0726 199 84.2774 200.574 84.1908L209.593 83.6943C210.775 83.6292 211.747 82.8547 212.119 81.8124L212.121 81.8093L214.751 74.5833L214.756 74.5708L214.759 74.5584C214.864 74.2407 214.927 73.886 214.906 73.5077L214.8 71.5887L214.798 71.5595L214.795 71.5035L214.781 71.2388L214.767 71.2261Z" stroke="white" stroke-width="1.34308"/>
</g>
<path d="M174.12 74.8428L174.776 76.6924C174.868 76.9516 174.914 77.0813 174.988 77.1912C175.054 77.2887 175.135 77.3745 175.229 77.445C175.335 77.5246 175.462 77.5773 175.716 77.6827L177.529 78.4349L175.679 79.0914C175.42 79.1834 175.29 79.2294 175.181 79.3033C175.083 79.3688 174.997 79.4503 174.927 79.5442C174.847 79.6501 174.794 79.7771 174.689 80.0313L173.937 81.8441L173.28 79.9945C173.188 79.7352 173.142 79.6056 173.068 79.4956C173.003 79.3982 172.922 79.3124 172.828 79.2419C172.722 79.1623 172.595 79.1096 172.341 79.0041L170.528 78.252L172.377 77.5955C172.637 77.5035 172.766 77.4575 172.876 77.3835C172.974 77.318 173.059 77.2366 173.13 77.1427C173.209 77.0368 173.262 76.9097 173.368 76.6556L174.12 74.8428Z" fill="#9481FF" fill-opacity="0.25"/>
<path d="M203.83 101.643L204.224 102.753C204.279 102.909 204.307 102.986 204.351 103.052C204.39 103.111 204.439 103.162 204.495 103.205C204.559 103.252 204.635 103.284 204.788 103.347L205.875 103.799L204.766 104.193C204.61 104.248 204.532 104.275 204.466 104.32C204.408 104.359 204.356 104.408 204.314 104.464C204.266 104.528 204.235 104.604 204.171 104.756L203.72 105.844L203.326 104.734C203.271 104.579 203.243 104.501 203.199 104.435C203.16 104.377 203.111 104.325 203.055 104.283C202.991 104.235 202.915 104.203 202.762 104.14L201.675 103.689L202.784 103.295C202.94 103.24 203.018 103.212 203.084 103.168C203.142 103.128 203.194 103.08 203.236 103.023C203.284 102.96 203.315 102.884 203.379 102.731L203.83 101.643Z" fill="#9481FF" fill-opacity="0.25"/>
<path d="M138.855 71.4127L142.753 73.2687C143.3 73.5289 143.573 73.659 143.859 73.715C144.113 73.7647 144.373 73.7714 144.628 73.7351C144.917 73.694 145.197 73.5784 145.756 73.3471L149.746 71.6971L147.89 75.5957C147.63 76.1421 147.5 76.4154 147.444 76.7015C147.394 76.955 147.387 77.2151 147.424 77.4709C147.465 77.7595 147.58 78.0391 147.812 78.5984L149.462 82.5886L145.563 80.7325C145.017 80.4723 144.743 80.3422 144.457 80.2862C144.204 80.2366 143.944 80.2298 143.688 80.2661C143.399 80.3072 143.12 80.4228 142.56 80.6541L138.57 82.3041L140.426 78.4055C140.686 77.859 140.816 77.5858 140.872 77.2997C140.922 77.0462 140.929 76.7861 140.893 76.5303C140.852 76.2417 140.736 75.9621 140.505 75.4028L138.855 71.4127Z" fill="#9481FF" fill-opacity="0.25"/>
<path d="M138.855 71.4125L142.753 73.2686C143.3 73.5287 143.573 73.6588 143.859 73.7148C144.113 73.7645 144.373 73.7713 144.628 73.7349C144.917 73.6939 145.197 73.5783 145.756 73.347L149.746 71.697L147.89 75.5956C147.63 76.142 147.5 76.4152 147.444 76.7013C147.394 76.9548 147.387 77.2149 147.424 77.4707C147.465 77.7593 147.58 78.0389 147.812 78.5983L149.462 82.5884L145.563 80.7323C145.017 80.4722 144.743 80.3421 144.457 80.2861C144.204 80.2364 143.944 80.2296 143.688 80.266C143.399 80.307 143.12 80.4226 142.56 80.6539L138.57 82.3039L140.426 78.4054C140.686 77.8589 140.816 77.5857 140.872 77.2996C140.922 77.0461 140.929 76.786 140.893 76.5302C140.852 76.2416 140.736 75.962 140.505 75.4026L138.855 71.4125Z" fill="#9481FF" fill-opacity="0.25"/>
<path d="M133.5 128.027L132.58 129.958C132.451 130.229 132.387 130.364 132.359 130.506C132.334 130.632 132.331 130.761 132.349 130.887C132.369 131.03 132.427 131.169 132.541 131.446L133.359 133.423L131.427 132.503C131.157 132.374 131.021 132.31 130.879 132.282C130.754 132.258 130.625 132.254 130.498 132.272C130.355 132.292 130.217 132.35 129.94 132.464L127.963 133.282L128.882 131.35C129.011 131.08 129.076 130.944 129.103 130.803C129.128 130.677 129.131 130.548 129.113 130.421C129.093 130.278 129.036 130.14 128.921 129.863L128.104 127.886L130.035 128.805C130.306 128.934 130.441 128.999 130.583 129.026C130.709 129.051 130.837 129.054 130.964 129.036C131.107 129.016 131.246 128.959 131.523 128.844L133.5 128.027Z" fill="#9481FF" fill-opacity="0.25"/>
</g>
<rect width="216.235" height="48.3508" transform="translate(89.1797 240.653) rotate(-15)" fill="white"/>
<rect x="102.339" y="248.251" width="194.746" height="26.8615" rx="5.37231" transform="rotate(-15 102.339 248.251)" fill="white"/>
<rect x="102.75" y="248.488" width="194.075" height="26.19" rx="5.03654" transform="rotate(-15 102.75 248.488)" stroke="#2B2828" stroke-opacity="0.07" stroke-width="0.671539"/>
<path opacity="0.5" d="M118.567 260.206L115.706 260.973L115.569 262.751L114.725 262.978L115.383 255.842L116.291 255.599L120.419 261.452L119.574 261.678L118.567 260.206ZM115.784 260.173L118.109 259.55L116.048 256.472L116.029 256.477L115.784 260.173ZM122.709 253.879L123.436 253.684L125.176 260.177L124.449 260.372L124.296 259.8L124.278 259.805C124.1 260.232 123.757 260.694 123.012 260.893C121.85 261.205 120.678 260.536 120.269 259.01C119.86 257.485 120.541 256.319 121.703 256.008C122.448 255.808 122.971 256.018 123.351 256.345L123.369 256.34L122.709 253.879ZM122.914 260.238C123.777 260.007 124.121 259.146 123.829 258.056C123.537 256.967 122.809 256.393 121.946 256.624C120.992 256.879 120.752 257.907 120.995 258.816C121.239 259.724 121.961 260.494 122.914 260.238ZM128.001 252.461L128.728 252.266L130.468 258.759L129.741 258.954L129.588 258.382L129.57 258.387C129.392 258.814 129.049 259.276 128.304 259.475C127.142 259.787 125.97 259.118 125.561 257.592C125.152 256.067 125.833 254.901 126.995 254.59C127.74 254.39 128.263 254.6 128.643 254.927L128.661 254.922L128.001 252.461ZM128.206 258.82C129.069 258.589 129.413 257.728 129.121 256.638C128.829 255.549 128.101 254.975 127.238 255.206C126.284 255.461 126.044 256.489 126.287 257.398C126.531 258.306 127.253 259.076 128.206 258.82ZM134.21 251.479C133.58 251.599 133.341 251.76 133.482 252.287L133.658 252.941L134.538 252.705L134.709 253.34L133.828 253.576L134.899 257.572L134.172 257.767L133.101 253.771L132.457 253.944L132.286 253.308L132.931 253.135L132.736 252.409C132.483 251.464 132.89 251.093 133.507 250.927C133.671 250.883 133.866 250.851 134.04 250.843L134.21 251.479ZM138.461 256.072C139.388 255.824 139.572 255.132 139.569 254.793L140.295 254.598C140.29 255.524 139.812 256.392 138.659 256.701C137.251 257.078 136.132 256.317 135.743 254.864C135.329 253.32 135.96 252.187 137.313 251.825C138.766 251.436 139.74 252.236 140.18 253.879L136.521 254.86C136.745 255.695 137.453 256.343 138.461 256.072ZM137.484 252.461C136.612 252.694 136.151 253.48 136.35 254.224L139.284 253.438C139.084 252.694 138.356 252.227 137.484 252.461ZM143.576 254.702C144.502 254.454 144.687 253.762 144.683 253.422L145.41 253.228C145.405 254.154 144.927 255.021 143.773 255.33C142.366 255.708 141.247 254.946 140.858 253.493C140.444 251.95 141.075 250.817 142.428 250.454C143.881 250.065 144.855 250.865 145.295 252.509L141.635 253.489C141.859 254.325 142.568 254.972 143.576 254.702ZM142.598 251.09C141.727 251.324 141.265 252.109 141.465 252.854L144.398 252.068C144.199 251.323 143.47 250.857 142.598 251.09ZM148.413 246.992L149.139 246.797L150.879 253.29L150.153 253.485L149.999 252.913L149.981 252.918C149.804 253.345 149.46 253.807 148.715 254.006C147.553 254.318 146.381 253.649 145.972 252.123C145.563 250.597 146.244 249.432 147.406 249.121C148.151 248.921 148.674 249.131 149.054 249.458L149.072 249.453L148.413 246.992ZM148.618 253.351C149.48 253.12 149.824 252.259 149.532 251.169C149.24 250.079 148.512 249.506 147.649 249.737C146.696 249.992 146.455 251.02 146.699 251.928C146.942 252.836 147.664 253.607 148.618 253.351ZM152.982 247.627C154.144 247.315 155.316 247.984 155.725 249.51C156.134 251.035 155.453 252.201 154.291 252.512C153.546 252.712 153.018 252.483 152.651 252.202L152.632 252.207L152.786 252.779L152.059 252.974L150.319 246.481L151.046 246.286L151.705 248.747L151.724 248.742C151.889 248.27 152.237 247.826 152.982 247.627ZM154.048 251.896C155.002 251.641 155.242 250.613 154.999 249.704C154.755 248.796 154.033 248.026 153.08 248.282C152.217 248.513 151.873 249.374 152.165 250.464C152.457 251.553 153.185 252.127 154.048 251.896ZM159.26 247.346C159.163 246.983 158.88 246.727 158.135 246.927C157.254 247.163 157.032 247.495 157.167 248.179L156.44 248.374C156.247 247.472 156.621 246.651 157.965 246.291C158.846 246.055 159.728 246.189 160.028 247.306L160.631 249.558C160.729 249.921 160.846 250.104 161.294 249.925L161.43 250.434C161.257 250.548 161.159 250.584 161.023 250.621C160.587 250.738 160.292 250.69 160.029 250.216L160.011 250.22C159.837 250.734 159.392 251.145 158.629 251.35C157.694 251.6 156.96 251.223 156.751 250.442C156.469 249.388 157.177 248.907 158.315 248.358C159.057 248.004 159.384 247.809 159.26 247.346ZM158.532 250.695C159.394 250.463 159.944 249.898 159.705 249.008L159.498 248.236C159.399 248.409 158.988 248.655 158.524 248.886C157.676 249.318 157.319 249.657 157.468 250.211C157.589 250.665 157.932 250.855 158.532 250.695ZM164.747 246.401C164.574 245.902 164.054 245.341 163.128 245.589C162.029 245.884 161.862 246.931 162.096 247.803C162.329 248.675 162.998 249.498 164.096 249.204C165.032 248.953 165.195 248.218 165.083 247.654L165.809 247.46C166.028 248.53 165.411 249.533 164.267 249.839C162.914 250.202 161.758 249.45 161.369 247.997C160.98 246.544 161.604 245.316 162.958 244.954C164.102 244.647 165.087 245.201 165.474 246.207L164.747 246.401ZM165.495 242.415L166.221 242.22L167.253 246.07L168.845 243.512L169.753 243.269L168.406 245.47L171.185 247.849L170.322 248.08L168.012 246.033L167.472 246.888L167.961 248.713L167.234 248.908L165.495 242.415Z" fill="#2B2828"/>
</g>
<g clip-path="url(#clip5_2167_6312)">
<g clip-path="url(#clip6_2167_6312)" filter="url(#filter7_b_2167_6312)">
<rect width="216.235" height="166.542" transform="translate(103.107 292.634) rotate(-15)" fill="url(#paint2_linear_2167_6312)"/>
<g filter="url(#filter8_ddd_2167_6312)">
<rect x="193.397" y="307.872" width="49.6952" height="49.6939" rx="14.494" transform="rotate(-15 193.397 307.872)" fill="#9481FF" shape-rendering="crispEdges"/>
<rect x="194.982" y="308.787" width="47.1069" height="47.1056" rx="13.1999" transform="rotate(-15 194.982 308.787)" stroke="white" stroke-width="2.58822" shape-rendering="crispEdges"/>
<g filter="url(#filter9_ddd_2167_6312)">
<path d="M213.703 323.653C213.253 321.973 213.028 321.133 213.183 320.403C213.319 319.762 213.655 319.18 214.143 318.741C214.697 318.242 215.537 318.017 217.217 317.567L225.617 315.316C227.297 314.866 228.137 314.641 228.867 314.796C229.508 314.932 230.09 315.268 230.529 315.756C231.028 316.31 231.253 317.15 231.703 318.83L233.15 324.23C233.601 325.91 233.826 326.75 233.671 327.48C233.534 328.121 233.198 328.703 232.711 329.142C232.157 329.641 231.317 329.866 229.636 330.316L227.12 330.99C226.496 331.158 226.184 331.241 225.902 331.383C225.652 331.508 225.42 331.666 225.212 331.854C224.978 332.065 224.786 332.325 224.403 332.846L222.529 335.393C222.202 335.838 222.039 336.06 221.864 336.107C221.712 336.148 221.549 336.117 221.422 336.024C221.276 335.916 221.205 335.65 221.062 335.117L220.436 332.781C219.506 333.031 219.041 333.155 218.632 333.155C217.523 333.155 216.498 332.563 215.943 331.602C215.738 331.248 215.614 330.783 215.364 329.853L213.703 323.653Z" fill="white"/>
<path d="M213.703 323.653C213.253 321.973 213.028 321.133 213.183 320.403C213.319 319.762 213.655 319.18 214.143 318.741C214.697 318.242 215.537 318.017 217.217 317.567L225.617 315.316C227.297 314.866 228.137 314.641 228.867 314.796C229.508 314.932 230.09 315.268 230.529 315.756C231.028 316.31 231.253 317.15 231.703 318.83L233.15 324.23C233.601 325.91 233.826 326.75 233.671 327.48C233.534 328.121 233.198 328.703 232.711 329.142C232.157 329.641 231.317 329.866 229.636 330.316L227.12 330.99C226.496 331.158 226.184 331.241 225.902 331.383C225.652 331.508 225.42 331.666 225.212 331.854C224.978 332.065 224.786 332.325 224.403 332.846L222.529 335.393C222.202 335.838 222.039 336.06 221.864 336.107C221.712 336.148 221.549 336.117 221.422 336.024C221.276 335.916 221.205 335.65 221.062 335.117L220.436 332.781C219.506 333.031 219.041 333.155 218.632 333.155C217.523 333.155 216.498 332.563 215.943 331.602C215.738 331.248 215.614 330.783 215.364 329.853L213.703 323.653Z" stroke="white" stroke-width="2.48469" stroke-linecap="round" stroke-linejoin="round"/>
</g>
<rect x="214.221" y="321.585" width="16.5646" height="2.07058" rx="1.03529" transform="rotate(-15 214.221 321.585)" fill="#9481FF"/>
<rect x="215.292" y="325.585" width="10.3529" height="2.07058" rx="1.03529" transform="rotate(-15 215.292 325.585)" fill="#9481FF"/>
</g>
<g filter="url(#filter10_ddddi_2167_6312)">
<path d="M168.997 294.691L171.948 295.639L173.599 293.015L176.048 294.916L178.497 293.015L180.148 295.639L183.1 294.691L183.754 297.721L186.851 297.839L186.43 300.91L189.3 302.081L187.853 304.822L190.151 306.904L187.853 308.986L189.301 311.727L186.43 312.898L186.852 315.969L183.753 316.087L183.1 319.118L180.148 318.169L178.497 320.793L176.048 318.892L173.599 320.793L171.948 318.169L168.997 319.117L168.343 316.087L165.245 315.969L165.667 312.898L162.796 311.727L164.243 308.986L161.945 306.904L164.243 304.822L162.796 302.081L165.667 300.91L165.245 297.839L168.343 297.721L168.997 294.691Z" fill="#9481FF"/>
<path fill-rule="evenodd" clip-rule="evenodd" d="M175.652 308.543C175.841 308.388 176.119 308.415 176.274 308.603C176.584 308.98 177.141 309.034 177.518 308.723C177.895 308.413 177.948 307.856 177.638 307.48C177.483 307.291 177.51 307.013 177.699 306.858C177.887 306.703 178.165 306.73 178.32 306.918C178.941 307.671 178.833 308.785 178.08 309.405C177.326 310.026 176.213 309.918 175.592 309.165C175.437 308.977 175.464 308.698 175.652 308.543Z" fill="white"/>
<path d="M171.153 307.598L171.762 307.935C172.3 308.233 172.936 308.295 173.52 308.106L174.185 307.89L173.846 308.502C173.548 309.038 173.487 309.675 173.677 310.26L173.891 310.922L173.282 310.585C172.744 310.287 172.108 310.225 171.524 310.414L170.859 310.629L171.198 310.018C171.496 309.482 171.557 308.845 171.368 308.26L171.153 307.598Z" fill="white"/>
<path d="M177.722 302.19L178.331 302.527C178.869 302.825 179.505 302.887 180.089 302.698L180.754 302.483L180.415 303.094C180.118 303.63 180.057 304.267 180.246 304.852L180.46 305.514L179.852 305.177C179.314 304.879 178.677 304.817 178.094 305.006L177.429 305.221L177.767 304.61C178.065 304.074 178.126 303.437 177.937 302.852L177.722 302.19Z" fill="white"/>
<path d="M169.39 295.367L171.79 296.139L172.178 296.263L172.395 295.918L173.737 293.785L175.728 295.33L176.05 295.581L176.372 295.331L178.364 293.785L179.706 295.918L179.923 296.263L180.311 296.138L182.711 295.367L183.242 297.831L183.329 298.229L183.736 298.245L186.255 298.341L185.912 300.838L185.856 301.242L186.234 301.396L188.568 302.347L187.391 304.576L187.201 304.937L187.503 305.211L189.371 306.903L187.503 308.595L187.201 308.869L187.391 309.23L188.568 311.459L186.234 312.41L185.856 312.564L185.912 312.968L186.255 315.465L183.736 315.561L183.328 315.577L183.242 315.975L182.711 318.439L180.311 317.668L179.923 317.543L179.706 317.888L178.364 320.021L176.372 318.476L176.05 318.226L175.728 318.476L173.737 320.021L172.395 317.888L172.178 317.543L171.79 317.668L169.39 318.439L168.858 315.975L168.773 315.577L168.365 315.561L165.846 315.465L166.189 312.968L166.245 312.564L165.867 312.411L163.533 311.459L164.71 309.23L164.9 308.869L164.598 308.595L162.73 306.903L164.598 305.211L164.9 304.937L164.71 304.576L163.533 302.347L165.867 301.396L166.245 301.242L166.189 300.838L165.846 298.341L168.365 298.245L168.772 298.229L168.858 297.831L169.39 295.367Z" stroke="white" stroke-width="1.34308"/>
</g>
<g filter="url(#filter11_ddddi_2167_6312)">
<path d="M249.544 292.992L253.553 292.772L252.891 280.746L248.883 280.966L249.544 292.992ZM270.986 280.755C270.925 279.647 269.978 278.8 268.871 278.861L262.542 279.209L263.247 274.577C263.261 274.475 263.271 274.369 263.265 274.259C263.242 273.843 263.051 273.476 262.765 273.221L261.64 272.222L255.403 279.185C255.063 279.57 254.865 280.084 254.895 280.635L255.447 290.657C255.508 291.764 256.455 292.612 257.562 292.551L266.581 292.054C267.413 292.009 268.097 291.463 268.358 290.73L270.991 283.499C271.068 283.263 271.11 283.015 271.096 282.759L270.99 280.84L270.979 280.83L270.986 280.755Z" fill="#9481FF"/>
<path d="M248.698 293.039L248.745 293.884L249.589 293.837L253.598 293.616L254.443 293.57L254.397 292.725L253.735 280.699L253.688 279.855L252.843 279.901L248.834 280.122L247.99 280.168L248.037 281.013L248.698 293.039ZM271.8 280.431C271.581 278.996 270.303 277.935 268.823 278.016L263.533 278.308L264.082 274.704L264.083 274.697C264.102 274.565 264.118 274.399 264.108 274.213C264.072 273.562 263.773 272.989 263.328 272.591L263.325 272.588L262.2 271.59L261.57 271.031L261.008 271.658L254.772 278.621L254.768 278.625C254.289 279.167 254.006 279.896 254.049 280.682L254.601 290.704C254.687 292.278 256.033 293.482 257.607 293.396L266.626 292.899C267.808 292.834 268.78 292.06 269.153 291.017L269.154 291.014L271.784 283.788L271.789 283.776L271.793 283.763C271.897 283.446 271.96 283.091 271.939 282.713L271.833 280.794L271.832 280.765L271.828 280.709L271.814 280.444L271.8 280.431Z" stroke="white" stroke-width="1.34308"/>
</g>
<path d="M231.152 284.048L231.808 285.897C231.901 286.157 231.946 286.286 232.02 286.396C232.086 286.494 232.167 286.579 232.261 286.65C232.367 286.73 232.494 286.782 232.748 286.888L234.561 287.64L232.712 288.296C232.452 288.388 232.323 288.434 232.213 288.508C232.115 288.574 232.03 288.655 231.959 288.749C231.879 288.855 231.827 288.982 231.721 289.236L230.969 291.049L230.313 289.199C230.221 288.94 230.175 288.811 230.101 288.701C230.035 288.603 229.954 288.517 229.86 288.447C229.754 288.367 229.627 288.315 229.373 288.209L227.56 287.457L229.41 286.801C229.669 286.708 229.798 286.662 229.908 286.589C230.006 286.523 230.092 286.442 230.162 286.348C230.242 286.242 230.294 286.115 230.4 285.861L231.152 284.048Z" fill="#9481FF" fill-opacity="0.25"/>
<path d="M260.862 310.848L261.256 311.958C261.311 312.114 261.339 312.191 261.383 312.257C261.422 312.316 261.471 312.367 261.528 312.41C261.591 312.457 261.667 312.489 261.82 312.552L262.908 313.004L261.798 313.398C261.642 313.453 261.565 313.48 261.499 313.525C261.44 313.564 261.389 313.613 261.346 313.669C261.299 313.733 261.267 313.809 261.204 313.961L260.752 315.049L260.358 313.939C260.303 313.784 260.276 313.706 260.231 313.64C260.192 313.582 260.143 313.53 260.087 313.488C260.023 313.44 259.947 313.408 259.795 313.345L258.707 312.894L259.817 312.5C259.972 312.445 260.05 312.417 260.116 312.373C260.174 312.334 260.226 312.285 260.268 312.228C260.316 312.165 260.348 312.089 260.411 311.936L260.862 310.848Z" fill="#9481FF" fill-opacity="0.25"/>
<path d="M195.886 280.618L199.784 282.474C200.331 282.734 200.604 282.864 200.89 282.92C201.144 282.97 201.404 282.976 201.66 282.94C201.948 282.899 202.228 282.783 202.787 282.552L206.777 280.902L204.921 284.801C204.661 285.347 204.531 285.62 204.475 285.906C204.425 286.16 204.419 286.42 204.455 286.676C204.496 286.964 204.612 287.244 204.843 287.803L206.493 291.794L202.594 289.937C202.048 289.677 201.775 289.547 201.489 289.491C201.235 289.442 200.975 289.435 200.719 289.471C200.43 289.512 200.151 289.628 199.592 289.859L195.601 291.509L197.457 287.611C197.718 287.064 197.848 286.791 197.904 286.505C197.953 286.251 197.96 285.991 197.924 285.735C197.883 285.447 197.767 285.167 197.536 284.608L195.886 280.618Z" fill="#9481FF" fill-opacity="0.25"/>
<path d="M195.886 280.618L199.784 282.474C200.331 282.734 200.604 282.864 200.89 282.92C201.144 282.97 201.404 282.976 201.66 282.94C201.948 282.899 202.228 282.783 202.787 282.552L206.777 280.902L204.921 284.801C204.661 285.347 204.531 285.62 204.475 285.906C204.425 286.16 204.419 286.42 204.455 286.676C204.496 286.964 204.612 287.244 204.843 287.803L206.493 291.793L202.594 289.937C202.048 289.677 201.775 289.547 201.489 289.491C201.235 289.441 200.975 289.435 200.719 289.471C200.43 289.512 200.151 289.628 199.592 289.859L195.601 291.509L197.457 287.61C197.718 287.064 197.848 286.791 197.904 286.505C197.953 286.251 197.96 285.991 197.924 285.735C197.883 285.447 197.767 285.167 197.536 284.608L195.886 280.618Z" fill="#9481FF" fill-opacity="0.25"/>
<path d="M190.533 337.232L189.613 339.163C189.484 339.434 189.42 339.569 189.392 339.711C189.368 339.837 189.364 339.966 189.382 340.092C189.403 340.235 189.46 340.374 189.574 340.651L190.392 342.628L188.46 341.708C188.19 341.579 188.054 341.515 187.913 341.487C187.787 341.463 187.658 341.459 187.531 341.477C187.388 341.497 187.25 341.555 186.973 341.669L184.996 342.487L185.915 340.555C186.044 340.285 186.109 340.149 186.137 340.007C186.161 339.882 186.165 339.753 186.147 339.626C186.126 339.483 186.069 339.345 185.954 339.068L185.137 337.091L187.068 338.01C187.339 338.139 187.474 338.204 187.616 338.231C187.742 338.256 187.871 338.259 187.997 338.241C188.14 338.221 188.279 338.164 188.556 338.049L190.533 337.232Z" fill="#9481FF" fill-opacity="0.25"/>
</g>
</g>
</g>
<g filter="url(#filter12_f_2167_6312)">
<rect x="11.5029" y="273.757" width="381.783" height="111.916" fill="#FDFDFD"/>
</g>
<g filter="url(#filter13_f_2167_6312)">
<rect x="-102" y="-51.6711" width="531.797" height="111.916" fill="#F7F6F6"/>
</g>
<defs>
<filter id="filter0_d_2167_6312" x="-60.1273" y="-189.027" width="412.34" height="620.938" filterUnits="userSpaceOnUse" color-interpolation-filters="sRGB">
<feFlood flood-opacity="0" result="BackgroundImageFix"/>
<feColorMatrix in="SourceAlpha" type="matrix" values="0 0 0 0 0 0 0 0 0 0 0 0 0 0 0 0 0 0 127 0" result="hardAlpha"/>
<feOffset dx="-10.9267" dy="52.8125"/>
<feGaussianBlur stdDeviation="19.1218"/>
<feComposite in2="hardAlpha" operator="out"/>
<feColorMatrix type="matrix" values="0 0 0 0 0 0 0 0 0 0 0 0 0 0 0 0 0 0 0.15 0"/>
<feBlend mode="normal" in2="BackgroundImageFix" result="effect1_dropShadow_2167_6312"/>
<feBlend mode="normal" in="SourceGraphic" in2="effect1_dropShadow_2167_6312" result="shape"/>
</filter>
<filter id="filter1_b_2167_6312" x="-27.074" y="-205.144" width="284.206" height="249.067" filterUnits="userSpaceOnUse" color-interpolation-filters="sRGB">
<feFlood flood-opacity="0" result="BackgroundImageFix"/>
<feGaussianBlur in="BackgroundImageFix" stdDeviation="8.05847"/>
<feComposite in2="SourceAlpha" operator="in" result="effect1_backgroundBlur_2167_6312"/>
<feBlend mode="normal" in="SourceGraphic" in2="effect1_backgroundBlur_2167_6312" result="shape"/>
</filter>
<filter id="filter2_b_2167_6312" x="29.9583" y="7.7036" width="284.206" height="249.067" filterUnits="userSpaceOnUse" color-interpolation-filters="sRGB">
<feFlood flood-opacity="0" result="BackgroundImageFix"/>
<feGaussianBlur in="BackgroundImageFix" stdDeviation="8.05847"/>
<feComposite in2="SourceAlpha" operator="in" result="effect1_backgroundBlur_2167_6312"/>
<feBlend mode="normal" in="SourceGraphic" in2="effect1_backgroundBlur_2167_6312" result="shape"/>
</filter>
<filter id="filter3_ddd_2167_6312" x="115.161" y="69.2404" width="110.558" height="110.557" filterUnits="userSpaceOnUse" color-interpolation-filters="sRGB">
<feFlood flood-opacity="0" result="BackgroundImageFix"/>
<feColorMatrix in="SourceAlpha" type="matrix" values="0 0 0 0 0 0 0 0 0 0 0 0 0 0 0 0 0 0 127 0" result="hardAlpha"/>
<feOffset dy="4.14121"/>
<feGaussianBlur stdDeviation="2.0706"/>
<feComposite in2="hardAlpha" operator="out"/>
<feColorMatrix type="matrix" values="0 0 0 0 0 0 0 0 0 0 0 0 0 0 0 0 0 0 0.075 0"/>
<feBlend mode="normal" in2="BackgroundImageFix" result="effect1_dropShadow_2167_6312"/>
<feColorMatrix in="SourceAlpha" type="matrix" values="0 0 0 0 0 0 0 0 0 0 0 0 0 0 0 0 0 0 127 0" result="hardAlpha"/>
<feOffset dy="8.28242"/>
<feGaussianBlur stdDeviation="12.4236"/>
<feComposite in2="hardAlpha" operator="out"/>
<feColorMatrix type="matrix" values="0 0 0 0 0 0 0 0 0 0 0 0 0 0 0 0 0 0 0.075 0"/>
<feBlend mode="normal" in2="effect1_dropShadow_2167_6312" result="effect2_dropShadow_2167_6312"/>
<feColorMatrix in="SourceAlpha" type="matrix" values="0 0 0 0 0 0 0 0 0 0 0 0 0 0 0 0 0 0 127 0" result="hardAlpha"/>
<feOffset dy="0.423904"/>
<feGaussianBlur stdDeviation="0.635857"/>
<feComposite in2="hardAlpha" operator="out"/>
<feColorMatrix type="matrix" values="0 0 0 0 0 0 0 0 0 0 0 0 0 0 0 0 0 0 0.2 0"/>
<feBlend mode="normal" in2="effect2_dropShadow_2167_6312" result="effect3_dropShadow_2167_6312"/>
<feBlend mode="normal" in="SourceGraphic" in2="effect3_dropShadow_2167_6312" result="shape"/>
</filter>
<filter id="filter4_ddd_2167_6312" x="152.29" y="100.158" width="35.4938" height="36.286" filterUnits="userSpaceOnUse" color-interpolation-filters="sRGB">
<feFlood flood-opacity="0" result="BackgroundImageFix"/>
<feColorMatrix in="SourceAlpha" type="matrix" values="0 0 0 0 0 0 0 0 0 0 0 0 0 0 0 0 0 0 127 0" result="hardAlpha"/>
<feMorphology radius="2.07058" operator="erode" in="SourceAlpha" result="effect1_dropShadow_2167_6312"/>
<feOffset dy="2.07058"/>
<feGaussianBlur stdDeviation="2.07058"/>
<feComposite in2="hardAlpha" operator="out"/>
<feColorMatrix type="matrix" values="0 0 0 0 0 0 0 0 0 0 0 0 0 0 0 0 0 0 0.1 0"/>
<feBlend mode="normal" in2="BackgroundImageFix" result="effect1_dropShadow_2167_6312"/>
<feColorMatrix in="SourceAlpha" type="matrix" values="0 0 0 0 0 0 0 0 0 0 0 0 0 0 0 0 0 0 127 0" result="hardAlpha"/>
<feOffset dy="2.07058"/>
<feGaussianBlur stdDeviation="3.10587"/>
<feComposite in2="hardAlpha" operator="out"/>
<feColorMatrix type="matrix" values="0 0 0 0 0 0 0 0 0 0 0 0 0 0 0 0 0 0 0.1 0"/>
<feBlend mode="normal" in2="effect1_dropShadow_2167_6312" result="effect2_dropShadow_2167_6312"/>
<feColorMatrix in="SourceAlpha" type="matrix" values="0 0 0 0 0 0 0 0 0 0 0 0 0 0 0 0 0 0 127 0" result="hardAlpha"/>
<feMorphology radius="2.07058" operator="dilate" in="SourceAlpha" result="effect3_dropShadow_2167_6312"/>
<feOffset/>
<feComposite in2="hardAlpha" operator="out"/>
<feColorMatrix type="matrix" values="0 0 0 0 0 0 0 0 0 0 0 0 0 0 0 0 0 0 0.05 0"/>
<feBlend mode="normal" in2="effect2_dropShadow_2167_6312" result="effect3_dropShadow_2167_6312"/>
<feBlend mode="normal" in="SourceGraphic" in2="effect3_dropShadow_2167_6312" result="shape"/>
</filter>
<filter id="filter5_ddddi_2167_6312" x="96.2927" y="77.9922" width="45.4489" height="45.014" filterUnits="userSpaceOnUse" color-interpolation-filters="sRGB">
<feFlood flood-opacity="0" result="BackgroundImageFix"/>
<feColorMatrix in="SourceAlpha" type="matrix" values="0 0 0 0 0 0 0 0 0 0 0 0 0 0 0 0 0 0 127 0" result="hardAlpha"/>
<feOffset dy="1.23408"/>
<feGaussianBlur stdDeviation="1.85111"/>
<feComposite in2="hardAlpha" operator="out"/>
<feColorMatrix type="matrix" values="0 0 0 0 0 0 0 0 0 0 0 0 0 0 0 0 0 0 0.02 0"/>
<feBlend mode="normal" in2="BackgroundImageFix" result="effect1_dropShadow_2167_6312"/>
<feColorMatrix in="SourceAlpha" type="matrix" values="0 0 0 0 0 0 0 0 0 0 0 0 0 0 0 0 0 0 127 0" result="hardAlpha"/>
<feOffset dy="1.40061"/>
<feGaussianBlur stdDeviation="0.700303"/>
<feComposite in2="hardAlpha" operator="out"/>
<feColorMatrix type="matrix" values="0 0 0 0 0 0 0 0 0 0 0 0 0 0 0 0 0 0 0.075 0"/>
<feBlend mode="normal" in2="effect1_dropShadow_2167_6312" result="effect2_dropShadow_2167_6312"/>
<feColorMatrix in="SourceAlpha" type="matrix" values="0 0 0 0 0 0 0 0 0 0 0 0 0 0 0 0 0 0 127 0" result="hardAlpha"/>
<feOffset dy="2.80121"/>
<feGaussianBlur stdDeviation="4.20182"/>
<feComposite in2="hardAlpha" operator="out"/>
<feColorMatrix type="matrix" values="0 0 0 0 0 0 0 0 0 0 0 0 0 0 0 0 0 0 0.075 0"/>
<feBlend mode="normal" in2="effect2_dropShadow_2167_6312" result="effect3_dropShadow_2167_6312"/>
<feColorMatrix in="SourceAlpha" type="matrix" values="0 0 0 0 0 0 0 0 0 0 0 0 0 0 0 0 0 0 127 0" result="hardAlpha"/>
<feOffset dy="0.143369"/>
<feGaussianBlur stdDeviation="0.215054"/>
<feComposite in2="hardAlpha" operator="out"/>
<feColorMatrix type="matrix" values="0 0 0 0 0 0 0 0 0 0 0 0 0 0 0 0 0 0 0.2 0"/>
<feBlend mode="normal" in2="effect3_dropShadow_2167_6312" result="effect4_dropShadow_2167_6312"/>
<feBlend mode="normal" in="SourceGraphic" in2="effect4_dropShadow_2167_6312" result="shape"/>
<feColorMatrix in="SourceAlpha" type="matrix" values="0 0 0 0 0 0 0 0 0 0 0 0 0 0 0 0 0 0 127 0" result="hardAlpha"/>
<feOffset dy="0.617039"/>
<feGaussianBlur stdDeviation="0.308519"/>
<feComposite in2="hardAlpha" operator="arithmetic" k2="-1" k3="1"/>
<feColorMatrix type="matrix" values="0 0 0 0 0 0 0 0 0 0 0 0 0 0 0 0 0 0 0.03 0"/>
<feBlend mode="normal" in2="shape" result="effect5_innerShadow_2167_6312"/>
</filter>
<filter id="filter6_ddddi_2167_6312" x="165.403" y="44.3153" width="75.0265" height="74.2004" filterUnits="userSpaceOnUse" color-interpolation-filters="sRGB">
<feFlood flood-opacity="0" result="BackgroundImageFix"/>
<feColorMatrix in="SourceAlpha" type="matrix" values="0 0 0 0 0 0 0 0 0 0 0 0 0 0 0 0 0 0 127 0" result="hardAlpha"/>
<feOffset dy="1.69182"/>
<feGaussianBlur stdDeviation="2.53773"/>
<feComposite in2="hardAlpha" operator="out"/>
<feColorMatrix type="matrix" values="0 0 0 0 0 0 0 0 0 0 0 0 0 0 0 0 0 0 0.02 0"/>
<feBlend mode="normal" in2="BackgroundImageFix" result="effect1_dropShadow_2167_6312"/>
<feColorMatrix in="SourceAlpha" type="matrix" values="0 0 0 0 0 0 0 0 0 0 0 0 0 0 0 0 0 0 127 0" result="hardAlpha"/>
<feOffset dy="4.14121"/>
<feGaussianBlur stdDeviation="2.0706"/>
<feComposite in2="hardAlpha" operator="out"/>
<feColorMatrix type="matrix" values="0 0 0 0 0 0 0 0 0 0 0 0 0 0 0 0 0 0 0.075 0"/>
<feBlend mode="normal" in2="effect1_dropShadow_2167_6312" result="effect2_dropShadow_2167_6312"/>
<feColorMatrix in="SourceAlpha" type="matrix" values="0 0 0 0 0 0 0 0 0 0 0 0 0 0 0 0 0 0 127 0" result="hardAlpha"/>
<feOffset dy="8.28242"/>
<feGaussianBlur stdDeviation="12.4236"/>
<feComposite in2="hardAlpha" operator="out"/>
<feColorMatrix type="matrix" values="0 0 0 0 0 0 0 0 0 0 0 0 0 0 0 0 0 0 0.075 0"/>
<feBlend mode="normal" in2="effect2_dropShadow_2167_6312" result="effect3_dropShadow_2167_6312"/>
<feColorMatrix in="SourceAlpha" type="matrix" values="0 0 0 0 0 0 0 0 0 0 0 0 0 0 0 0 0 0 127 0" result="hardAlpha"/>
<feOffset dy="0.423904"/>
<feGaussianBlur stdDeviation="0.635857"/>
<feComposite in2="hardAlpha" operator="out"/>
<feColorMatrix type="matrix" values="0 0 0 0 0 0 0 0 0 0 0 0 0 0 0 0 0 0 0.2 0"/>
<feBlend mode="normal" in2="effect3_dropShadow_2167_6312" result="effect4_dropShadow_2167_6312"/>
<feBlend mode="normal" in="SourceGraphic" in2="effect4_dropShadow_2167_6312" result="shape"/>
<feColorMatrix in="SourceAlpha" type="matrix" values="0 0 0 0 0 0 0 0 0 0 0 0 0 0 0 0 0 0 127 0" result="hardAlpha"/>
<feOffset dy="0.84591"/>
<feGaussianBlur stdDeviation="0.422955"/>
<feComposite in2="hardAlpha" operator="arithmetic" k2="-1" k3="1"/>
<feColorMatrix type="matrix" values="0 0 0 0 0 0 0 0 0 0 0 0 0 0 0 0 0 0 0.03 0"/>
<feBlend mode="normal" in2="shape" result="effect5_innerShadow_2167_6312"/>
</filter>
<filter id="filter7_b_2167_6312" x="86.9905" y="220.551" width="284.206" height="249.067" filterUnits="userSpaceOnUse" color-interpolation-filters="sRGB">
<feFlood flood-opacity="0" result="BackgroundImageFix"/>
<feGaussianBlur in="BackgroundImageFix" stdDeviation="8.05847"/>
<feComposite in2="SourceAlpha" operator="in" result="effect1_backgroundBlur_2167_6312"/>
<feBlend mode="normal" in="SourceGraphic" in2="effect1_backgroundBlur_2167_6312" result="shape"/>
</filter>
<filter id="filter8_ddd_2167_6312" x="168.55" y="278.445" width="110.558" height="110.557" filterUnits="userSpaceOnUse" color-interpolation-filters="sRGB">
<feFlood flood-opacity="0" result="BackgroundImageFix"/>
<feColorMatrix in="SourceAlpha" type="matrix" values="0 0 0 0 0 0 0 0 0 0 0 0 0 0 0 0 0 0 127 0" result="hardAlpha"/>
<feOffset dy="4.14121"/>
<feGaussianBlur stdDeviation="2.0706"/>
<feComposite in2="hardAlpha" operator="out"/>
<feColorMatrix type="matrix" values="0 0 0 0 0 0 0 0 0 0 0 0 0 0 0 0 0 0 0.075 0"/>
<feBlend mode="normal" in2="BackgroundImageFix" result="effect1_dropShadow_2167_6312"/>
<feColorMatrix in="SourceAlpha" type="matrix" values="0 0 0 0 0 0 0 0 0 0 0 0 0 0 0 0 0 0 127 0" result="hardAlpha"/>
<feOffset dy="8.28242"/>
<feGaussianBlur stdDeviation="12.4236"/>
<feComposite in2="hardAlpha" operator="out"/>
<feColorMatrix type="matrix" values="0 0 0 0 0 0 0 0 0 0 0 0 0 0 0 0 0 0 0.075 0"/>
<feBlend mode="normal" in2="effect1_dropShadow_2167_6312" result="effect2_dropShadow_2167_6312"/>
<feColorMatrix in="SourceAlpha" type="matrix" values="0 0 0 0 0 0 0 0 0 0 0 0 0 0 0 0 0 0 127 0" result="hardAlpha"/>
<feOffset dy="0.423904"/>
<feGaussianBlur stdDeviation="0.635857"/>
<feComposite in2="hardAlpha" operator="out"/>
<feColorMatrix type="matrix" values="0 0 0 0 0 0 0 0 0 0 0 0 0 0 0 0 0 0 0.2 0"/>
<feBlend mode="normal" in2="effect2_dropShadow_2167_6312" result="effect3_dropShadow_2167_6312"/>
<feBlend mode="normal" in="SourceGraphic" in2="effect3_dropShadow_2167_6312" result="shape"/>
</filter>
<filter id="filter9_ddd_2167_6312" x="205.68" y="309.363" width="35.4938" height="36.286" filterUnits="userSpaceOnUse" color-interpolation-filters="sRGB">
<feFlood flood-opacity="0" result="BackgroundImageFix"/>
<feColorMatrix in="SourceAlpha" type="matrix" values="0 0 0 0 0 0 0 0 0 0 0 0 0 0 0 0 0 0 127 0" result="hardAlpha"/>
<feMorphology radius="2.07058" operator="erode" in="SourceAlpha" result="effect1_dropShadow_2167_6312"/>
<feOffset dy="2.07058"/>
<feGaussianBlur stdDeviation="2.07058"/>
<feComposite in2="hardAlpha" operator="out"/>
<feColorMatrix type="matrix" values="0 0 0 0 0 0 0 0 0 0 0 0 0 0 0 0 0 0 0.1 0"/>
<feBlend mode="normal" in2="BackgroundImageFix" result="effect1_dropShadow_2167_6312"/>
<feColorMatrix in="SourceAlpha" type="matrix" values="0 0 0 0 0 0 0 0 0 0 0 0 0 0 0 0 0 0 127 0" result="hardAlpha"/>
<feOffset dy="2.07058"/>
<feGaussianBlur stdDeviation="3.10587"/>
<feComposite in2="hardAlpha" operator="out"/>
<feColorMatrix type="matrix" values="0 0 0 0 0 0 0 0 0 0 0 0 0 0 0 0 0 0 0.1 0"/>
<feBlend mode="normal" in2="effect1_dropShadow_2167_6312" result="effect2_dropShadow_2167_6312"/>
<feColorMatrix in="SourceAlpha" type="matrix" values="0 0 0 0 0 0 0 0 0 0 0 0 0 0 0 0 0 0 127 0" result="hardAlpha"/>
<feMorphology radius="2.07058" operator="dilate" in="SourceAlpha" result="effect3_dropShadow_2167_6312"/>
<feOffset/>
<feComposite in2="hardAlpha" operator="out"/>
<feColorMatrix type="matrix" values="0 0 0 0 0 0 0 0 0 0 0 0 0 0 0 0 0 0 0.05 0"/>
<feBlend mode="normal" in2="effect2_dropShadow_2167_6312" result="effect3_dropShadow_2167_6312"/>
<feBlend mode="normal" in="SourceGraphic" in2="effect3_dropShadow_2167_6312" result="shape"/>
</filter>
<filter id="filter10_ddddi_2167_6312" x="153.326" y="287.197" width="45.4489" height="45.014" filterUnits="userSpaceOnUse" color-interpolation-filters="sRGB">
<feFlood flood-opacity="0" result="BackgroundImageFix"/>
<feColorMatrix in="SourceAlpha" type="matrix" values="0 0 0 0 0 0 0 0 0 0 0 0 0 0 0 0 0 0 127 0" result="hardAlpha"/>
<feOffset dy="1.23408"/>
<feGaussianBlur stdDeviation="1.85111"/>
<feComposite in2="hardAlpha" operator="out"/>
<feColorMatrix type="matrix" values="0 0 0 0 0 0 0 0 0 0 0 0 0 0 0 0 0 0 0.02 0"/>
<feBlend mode="normal" in2="BackgroundImageFix" result="effect1_dropShadow_2167_6312"/>
<feColorMatrix in="SourceAlpha" type="matrix" values="0 0 0 0 0 0 0 0 0 0 0 0 0 0 0 0 0 0 127 0" result="hardAlpha"/>
<feOffset dy="1.40061"/>
<feGaussianBlur stdDeviation="0.700303"/>
<feComposite in2="hardAlpha" operator="out"/>
<feColorMatrix type="matrix" values="0 0 0 0 0 0 0 0 0 0 0 0 0 0 0 0 0 0 0.075 0"/>
<feBlend mode="normal" in2="effect1_dropShadow_2167_6312" result="effect2_dropShadow_2167_6312"/>
<feColorMatrix in="SourceAlpha" type="matrix" values="0 0 0 0 0 0 0 0 0 0 0 0 0 0 0 0 0 0 127 0" result="hardAlpha"/>
<feOffset dy="2.80121"/>
<feGaussianBlur stdDeviation="4.20182"/>
<feComposite in2="hardAlpha" operator="out"/>
<feColorMatrix type="matrix" values="0 0 0 0 0 0 0 0 0 0 0 0 0 0 0 0 0 0 0.075 0"/>
<feBlend mode="normal" in2="effect2_dropShadow_2167_6312" result="effect3_dropShadow_2167_6312"/>
<feColorMatrix in="SourceAlpha" type="matrix" values="0 0 0 0 0 0 0 0 0 0 0 0 0 0 0 0 0 0 127 0" result="hardAlpha"/>
<feOffset dy="0.143369"/>
<feGaussianBlur stdDeviation="0.215054"/>
<feComposite in2="hardAlpha" operator="out"/>
<feColorMatrix type="matrix" values="0 0 0 0 0 0 0 0 0 0 0 0 0 0 0 0 0 0 0.2 0"/>
<feBlend mode="normal" in2="effect3_dropShadow_2167_6312" result="effect4_dropShadow_2167_6312"/>
<feBlend mode="normal" in="SourceGraphic" in2="effect4_dropShadow_2167_6312" result="shape"/>
<feColorMatrix in="SourceAlpha" type="matrix" values="0 0 0 0 0 0 0 0 0 0 0 0 0 0 0 0 0 0 127 0" result="hardAlpha"/>
<feOffset dy="0.617039"/>
<feGaussianBlur stdDeviation="0.308519"/>
<feComposite in2="hardAlpha" operator="arithmetic" k2="-1" k3="1"/>
<feColorMatrix type="matrix" values="0 0 0 0 0 0 0 0 0 0 0 0 0 0 0 0 0 0 0.03 0"/>
<feBlend mode="normal" in2="shape" result="effect5_innerShadow_2167_6312"/>
</filter>
<filter id="filter11_ddddi_2167_6312" x="222.436" y="253.52" width="75.0265" height="74.2004" filterUnits="userSpaceOnUse" color-interpolation-filters="sRGB">
<feFlood flood-opacity="0" result="BackgroundImageFix"/>
<feColorMatrix in="SourceAlpha" type="matrix" values="0 0 0 0 0 0 0 0 0 0 0 0 0 0 0 0 0 0 127 0" result="hardAlpha"/>
<feOffset dy="1.69182"/>
<feGaussianBlur stdDeviation="2.53773"/>
<feComposite in2="hardAlpha" operator="out"/>
<feColorMatrix type="matrix" values="0 0 0 0 0 0 0 0 0 0 0 0 0 0 0 0 0 0 0.02 0"/>
<feBlend mode="normal" in2="BackgroundImageFix" result="effect1_dropShadow_2167_6312"/>
<feColorMatrix in="SourceAlpha" type="matrix" values="0 0 0 0 0 0 0 0 0 0 0 0 0 0 0 0 0 0 127 0" result="hardAlpha"/>
<feOffset dy="4.14121"/>
<feGaussianBlur stdDeviation="2.0706"/>
<feComposite in2="hardAlpha" operator="out"/>
<feColorMatrix type="matrix" values="0 0 0 0 0 0 0 0 0 0 0 0 0 0 0 0 0 0 0.075 0"/>
<feBlend mode="normal" in2="effect1_dropShadow_2167_6312" result="effect2_dropShadow_2167_6312"/>
<feColorMatrix in="SourceAlpha" type="matrix" values="0 0 0 0 0 0 0 0 0 0 0 0 0 0 0 0 0 0 127 0" result="hardAlpha"/>
<feOffset dy="8.28242"/>
<feGaussianBlur stdDeviation="12.4236"/>
<feComposite in2="hardAlpha" operator="out"/>
<feColorMatrix type="matrix" values="0 0 0 0 0 0 0 0 0 0 0 0 0 0 0 0 0 0 0.075 0"/>
<feBlend mode="normal" in2="effect2_dropShadow_2167_6312" result="effect3_dropShadow_2167_6312"/>
<feColorMatrix in="SourceAlpha" type="matrix" values="0 0 0 0 0 0 0 0 0 0 0 0 0 0 0 0 0 0 127 0" result="hardAlpha"/>
<feOffset dy="0.423904"/>
<feGaussianBlur stdDeviation="0.635857"/>
<feComposite in2="hardAlpha" operator="out"/>
<feColorMatrix type="matrix" values="0 0 0 0 0 0 0 0 0 0 0 0 0 0 0 0 0 0 0.2 0"/>
<feBlend mode="normal" in2="effect3_dropShadow_2167_6312" result="effect4_dropShadow_2167_6312"/>
<feBlend mode="normal" in="SourceGraphic" in2="effect4_dropShadow_2167_6312" result="shape"/>
<feColorMatrix in="SourceAlpha" type="matrix" values="0 0 0 0 0 0 0 0 0 0 0 0 0 0 0 0 0 0 127 0" result="hardAlpha"/>
<feOffset dy="0.84591"/>
<feGaussianBlur stdDeviation="0.422955"/>
<feComposite in2="hardAlpha" operator="arithmetic" k2="-1" k3="1"/>
<feColorMatrix type="matrix" values="0 0 0 0 0 0 0 0 0 0 0 0 0 0 0 0 0 0 0.03 0"/>
<feBlend mode="normal" in2="shape" result="effect5_innerShadow_2167_6312"/>
</filter>
<filter id="filter12_f_2167_6312" x="-26.7406" y="235.513" width="458.269" height="188.403" filterUnits="userSpaceOnUse" color-interpolation-filters="sRGB">
<feFlood flood-opacity="0" result="BackgroundImageFix"/>
<feBlend mode="normal" in="SourceGraphic" in2="BackgroundImageFix" result="shape"/>
<feGaussianBlur stdDeviation="19.1218" result="effect1_foregroundBlur_2167_6312"/>
</filter>
<filter id="filter13_f_2167_6312" x="-140.244" y="-89.9147" width="608.284" height="188.403" filterUnits="userSpaceOnUse" color-interpolation-filters="sRGB">
<feFlood flood-opacity="0" result="BackgroundImageFix"/>
<feBlend mode="normal" in="SourceGraphic" in2="BackgroundImageFix" result="shape"/>
<feGaussianBlur stdDeviation="19.1218" result="effect1_foregroundBlur_2167_6312"/>
</filter>
<linearGradient id="paint0_linear_2167_6312" x1="108.118" y1="0" x2="108.118" y2="166.542" gradientUnits="userSpaceOnUse">
<stop stop-color="white"/>
<stop offset="1" stop-color="#F9F9F9"/>
</linearGradient>
<linearGradient id="paint1_linear_2167_6312" x1="108.118" y1="0" x2="108.118" y2="166.542" gradientUnits="userSpaceOnUse">
<stop stop-color="white"/>
<stop offset="1" stop-color="#F9F9F9"/>
</linearGradient>
<linearGradient id="paint2_linear_2167_6312" x1="108.118" y1="0" x2="108.118" y2="166.542" gradientUnits="userSpaceOnUse">
<stop stop-color="white"/>
<stop offset="1" stop-color="#F9F9F9"/>
</linearGradient>
<clipPath id="clip0_2167_6312">
<rect width="216.235" height="490.634" fill="white" transform="translate(-10.957 -133.061) rotate(-15)"/>
</clipPath>
<clipPath id="clip1_2167_6312">
<rect x="-10.957" y="-133.061" width="216.235" height="214.892" rx="10.7446" transform="rotate(-15 -10.957 -133.061)" fill="white"/>
</clipPath>
<clipPath id="clip2_2167_6312">
<rect width="216.235" height="166.542" fill="white" transform="translate(-10.957 -133.061) rotate(-15)"/>
</clipPath>
<clipPath id="clip3_2167_6312">
<rect x="46.0752" y="79.7864" width="216.235" height="214.892" rx="10.7446" transform="rotate(-15 46.0752 79.7864)" fill="white"/>
</clipPath>
<clipPath id="clip4_2167_6312">
<rect width="216.235" height="166.542" fill="white" transform="translate(46.0752 79.7864) rotate(-15)"/>
</clipPath>
<clipPath id="clip5_2167_6312">
<rect x="103.107" y="292.634" width="216.235" height="214.892" rx="10.7446" transform="rotate(-15 103.107 292.634)" fill="white"/>
</clipPath>
<clipPath id="clip6_2167_6312">
<rect width="216.235" height="166.542" fill="white" transform="translate(103.107 292.634) rotate(-15)"/>
</clipPath>
</defs>
</svg>
