<svg width="144" height="145" viewBox="0 0 144 145" fill="none" xmlns="http://www.w3.org/2000/svg">
<g filter="url(#filter0_ddd_2167_4491)">
<rect x="36" y="24.8074" width="72.0019" height="72" rx="21" fill="url(#paint0_linear_2167_4491)" shape-rendering="crispEdges"/>
<rect x="36" y="24.8074" width="72.0019" height="72" rx="21" fill="url(#paint1_linear_2167_4491)" shape-rendering="crispEdges"/>
<rect x="37.875" y="26.6824" width="68.2519" height="68.25" rx="19.125" stroke="white" stroke-width="3.75" shape-rendering="crispEdges"/>
<g filter="url(#filter1_ddd_2167_4491)">
<path d="M58.501 54.5074C58.501 51.9872 58.501 50.7271 58.9914 49.7645C59.4229 48.9177 60.1113 48.2293 60.958 47.7979C61.9206 47.3074 63.1807 47.3074 65.701 47.3074H78.301C80.8212 47.3074 82.0813 47.3074 83.0439 47.7979C83.8907 48.2293 84.5791 48.9177 85.0105 49.7645C85.501 50.7271 85.501 51.9872 85.501 54.5074V62.6074C85.501 65.1277 85.501 66.3878 85.0105 67.3504C84.5791 68.1971 83.8907 68.8855 83.0439 69.317C82.0813 69.8074 80.8212 69.8074 78.301 69.8074H74.5266C73.5905 69.8074 73.1225 69.8074 72.6748 69.8993C72.2776 69.9808 71.8933 70.1156 71.5322 70.3001C71.1252 70.508 70.7598 70.8004 70.0288 71.3852L66.4506 74.2477C65.8265 74.747 65.5144 74.9967 65.2518 74.997C65.0234 74.9972 64.8073 74.8934 64.6648 74.7149C64.501 74.5096 64.501 74.11 64.501 73.3107V69.8074C63.106 69.8074 62.4085 69.8074 61.8363 69.6541C60.2834 69.238 59.0704 68.025 58.6543 66.4721C58.501 65.8999 58.501 65.2024 58.501 63.8074V54.5074Z" fill="white"/>
<path d="M58.501 54.5074C58.501 51.9872 58.501 50.7271 58.9914 49.7645C59.4229 48.9177 60.1113 48.2293 60.958 47.7979C61.9206 47.3074 63.1807 47.3074 65.701 47.3074H78.301C80.8212 47.3074 82.0813 47.3074 83.0439 47.7979C83.8907 48.2293 84.5791 48.9177 85.0105 49.7645C85.501 50.7271 85.501 51.9872 85.501 54.5074V62.6074C85.501 65.1277 85.501 66.3878 85.0105 67.3504C84.5791 68.1971 83.8907 68.8855 83.0439 69.317C82.0813 69.8074 80.8212 69.8074 78.301 69.8074H74.5266C73.5905 69.8074 73.1225 69.8074 72.6748 69.8993C72.2776 69.9808 71.8933 70.1156 71.5322 70.3001C71.1252 70.508 70.7598 70.8004 70.0288 71.3852L66.4506 74.2477C65.8265 74.747 65.5144 74.9967 65.2518 74.997C65.0234 74.9972 64.8073 74.8934 64.6648 74.7149C64.501 74.5096 64.501 74.11 64.501 73.3107V69.8074C63.106 69.8074 62.4085 69.8074 61.8363 69.6541C60.2834 69.238 59.0704 68.025 58.6543 66.4721C58.501 65.8999 58.501 65.2024 58.501 63.8074V54.5074Z" stroke="white" stroke-width="3.6" stroke-linecap="round" stroke-linejoin="round"/>
</g>
<rect x="60.001" y="51.8074" width="24" height="3" rx="1.5" fill="#7F6BFF"/>
<rect x="60.001" y="57.8074" width="15" height="3" rx="1.5" fill="#7F6BFF"/>
</g>
<defs>
<filter id="filter0_ddd_2167_4491" x="-0.000473022" y="0.807117" width="144.003" height="144.001" filterUnits="userSpaceOnUse" color-interpolation-filters="sRGB">
<feFlood flood-opacity="0" result="BackgroundImageFix"/>
<feColorMatrix in="SourceAlpha" type="matrix" values="0 0 0 0 0 0 0 0 0 0 0 0 0 0 0 0 0 0 127 0" result="hardAlpha"/>
<feOffset dy="6.00008"/>
<feGaussianBlur stdDeviation="3.00004"/>
<feComposite in2="hardAlpha" operator="out"/>
<feColorMatrix type="matrix" values="0 0 0 0 0 0 0 0 0 0 0 0 0 0 0 0 0 0 0.075 0"/>
<feBlend mode="normal" in2="BackgroundImageFix" result="effect1_dropShadow_2167_4491"/>
<feColorMatrix in="SourceAlpha" type="matrix" values="0 0 0 0 0 0 0 0 0 0 0 0 0 0 0 0 0 0 127 0" result="hardAlpha"/>
<feOffset dy="12.0002"/>
<feGaussianBlur stdDeviation="18.0002"/>
<feComposite in2="hardAlpha" operator="out"/>
<feColorMatrix type="matrix" values="0 0 0 0 0 0 0 0 0 0 0 0 0 0 0 0 0 0 0.075 0"/>
<feBlend mode="normal" in2="effect1_dropShadow_2167_4491" result="effect2_dropShadow_2167_4491"/>
<feColorMatrix in="SourceAlpha" type="matrix" values="0 0 0 0 0 0 0 0 0 0 0 0 0 0 0 0 0 0 127 0" result="hardAlpha"/>
<feOffset dy="0.614183"/>
<feGaussianBlur stdDeviation="0.921274"/>
<feComposite in2="hardAlpha" operator="out"/>
<feColorMatrix type="matrix" values="0 0 0 0 0 0 0 0 0 0 0 0 0 0 0 0 0 0 0.2 0"/>
<feBlend mode="normal" in2="effect2_dropShadow_2167_4491" result="effect3_dropShadow_2167_4491"/>
<feBlend mode="normal" in="SourceGraphic" in2="effect3_dropShadow_2167_4491" result="shape"/>
</filter>
<filter id="filter1_ddd_2167_4491" x="47.7012" y="39.5074" width="48.5996" height="49.2895" filterUnits="userSpaceOnUse" color-interpolation-filters="sRGB">
<feFlood flood-opacity="0" result="BackgroundImageFix"/>
<feColorMatrix in="SourceAlpha" type="matrix" values="0 0 0 0 0 0 0 0 0 0 0 0 0 0 0 0 0 0 127 0" result="hardAlpha"/>
<feMorphology radius="3" operator="erode" in="SourceAlpha" result="effect1_dropShadow_2167_4491"/>
<feOffset dy="3"/>
<feGaussianBlur stdDeviation="3"/>
<feComposite in2="hardAlpha" operator="out"/>
<feColorMatrix type="matrix" values="0 0 0 0 0 0 0 0 0 0 0 0 0 0 0 0 0 0 0.1 0"/>
<feBlend mode="normal" in2="BackgroundImageFix" result="effect1_dropShadow_2167_4491"/>
<feColorMatrix in="SourceAlpha" type="matrix" values="0 0 0 0 0 0 0 0 0 0 0 0 0 0 0 0 0 0 127 0" result="hardAlpha"/>
<feOffset dy="3"/>
<feGaussianBlur stdDeviation="4.5"/>
<feComposite in2="hardAlpha" operator="out"/>
<feColorMatrix type="matrix" values="0 0 0 0 0 0 0 0 0 0 0 0 0 0 0 0 0 0 0.1 0"/>
<feBlend mode="normal" in2="effect1_dropShadow_2167_4491" result="effect2_dropShadow_2167_4491"/>
<feColorMatrix in="SourceAlpha" type="matrix" values="0 0 0 0 0 0 0 0 0 0 0 0 0 0 0 0 0 0 127 0" result="hardAlpha"/>
<feMorphology radius="3" operator="dilate" in="SourceAlpha" result="effect3_dropShadow_2167_4491"/>
<feOffset/>
<feComposite in2="hardAlpha" operator="out"/>
<feColorMatrix type="matrix" values="0 0 0 0 0 0 0 0 0 0 0 0 0 0 0 0 0 0 0.05 0"/>
<feBlend mode="normal" in2="effect2_dropShadow_2167_4491" result="effect3_dropShadow_2167_4491"/>
<feBlend mode="normal" in="SourceGraphic" in2="effect3_dropShadow_2167_4491" result="shape"/>
</filter>
<linearGradient id="paint0_linear_2167_4491" x1="72.0009" y1="24.8074" x2="72.0009" y2="96.8074" gradientUnits="userSpaceOnUse">
<stop stop-color="#6F5CF6"/>
<stop offset="1" stop-color="#7966FF"/>
</linearGradient>
<linearGradient id="paint1_linear_2167_4491" x1="72.0009" y1="24.8074" x2="72.0009" y2="96.8074" gradientUnits="userSpaceOnUse">
<stop stop-color="#A18EFF"/>
<stop offset="1" stop-color="#7966FF"/>
</linearGradient>
</defs>
</svg>
