              <svg
                width="18"
                height="18"
                viewBox="0 0 18 18"
                fill="none"
                xmlns="http://www.w3.org/2000/svg"
              >
                <g filter="url(#filter0_ddd_4074_2569)">
                  <path
                    d="M4.49902 5.9C4.49902 5.05992 4.49902 4.63988 4.66251 4.31901C4.80632 4.03677 5.03579 3.8073 5.31804 3.66349C5.63891 3.5 6.05894 3.5 6.89902 3.5L11.099 3.5C11.9391 3.5 12.3591 3.5 12.68 3.66349C12.9623 3.8073 13.1917 4.03677 13.3355 4.31901C13.499 4.63988 13.499 5.05992 13.499 5.9V8.6C13.499 9.44008 13.499 9.86012 13.3355 10.181C13.1917 10.4632 12.9623 10.6927 12.68 10.8365C12.3591 11 11.9391 11 11.099 11H9.8409C9.52887 11 9.37286 11 9.22363 11.0306C9.09124 11.0578 8.96312 11.1027 8.84277 11.1642C8.70711 11.2335 8.58528 11.331 8.34163 11.5259L7.1489 12.4801C6.94086 12.6465 6.83684 12.7297 6.74929 12.7298C6.67316 12.7299 6.60113 12.6953 6.55364 12.6358C6.49902 12.5674 6.49902 12.4342 6.49902 12.1678V11C6.03404 11 5.80154 11 5.61079 10.9489C5.09316 10.8102 4.68884 10.4059 4.55013 9.88823C4.49902 9.69748 4.49902 9.46499 4.49902 9L4.49902 5.9Z"
                    fill="white"
                  />
                  <path
                    d="M4.49902 5.9C4.49902 5.05992 4.49902 4.63988 4.66251 4.31901C4.80632 4.03677 5.03579 3.8073 5.31804 3.66349C5.63891 3.5 6.05894 3.5 6.89902 3.5L11.099 3.5C11.9391 3.5 12.3591 3.5 12.68 3.66349C12.9623 3.8073 13.1917 4.03677 13.3355 4.31901C13.499 4.63988 13.499 5.05992 13.499 5.9V8.6C13.499 9.44008 13.499 9.86012 13.3355 10.181C13.1917 10.4632 12.9623 10.6927 12.68 10.8365C12.3591 11 11.9391 11 11.099 11H9.8409C9.52887 11 9.37286 11 9.22363 11.0306C9.09124 11.0578 8.96312 11.1027 8.84277 11.1642C8.70711 11.2335 8.58528 11.331 8.34163 11.5259L7.1489 12.4801C6.94086 12.6465 6.83684 12.7297 6.74929 12.7298C6.67316 12.7299 6.60113 12.6953 6.55364 12.6358C6.49902 12.5674 6.49902 12.4342 6.49902 12.1678V11C6.03404 11 5.80154 11 5.61079 10.9489C5.09316 10.8102 4.68884 10.4059 4.55013 9.88823C4.49902 9.69748 4.49902 9.46499 4.49902 9L4.49902 5.9Z"
                    stroke="white"
                    stroke-width="1.2"
                    stroke-linecap="round"
                    stroke-linejoin="round"
                  />
                </g>
                <rect
                  x="4.99902"
                  y="5"
                  width="8"
                  height="1"
                  rx="0.5"
                  fill="#7F6BFF"
                />
                <rect
                  x="4.99902"
                  y="7"
                  width="5"
                  height="1"
                  rx="0.5"
                  fill="#7F6BFF"
                />
                <defs>
                  <filter
                    id="filter0_ddd_4074_2569"
                    x="0.899414"
                    y="0.900391"
                    width="16.1992"
                    height="16.4297"
                    filterUnits="userSpaceOnUse"
                    color-interpolation-filters="sRGB"
                  >
                    <feFlood flood-opacity="0" result="BackgroundImageFix" />
                    <feColorMatrix
                      in="SourceAlpha"
                      type="matrix"
                      values="0 0 0 0 0 0 0 0 0 0 0 0 0 0 0 0 0 0 127 0"
                      result="hardAlpha"
                    />
                    <feMorphology
                      radius="1"
                      operator="erode"
                      in="SourceAlpha"
                      result="effect1_dropShadow_4074_2569"
                    />
                    <feOffset dy="1" />
                    <feGaussianBlur stdDeviation="1" />
                    <feComposite in2="hardAlpha" operator="out" />
                    <feColorMatrix
                      type="matrix"
                      values="0 0 0 0 0 0 0 0 0 0 0 0 0 0 0 0 0 0 0.1 0"
                    />
                    <feBlend
                      mode="normal"
                      in2="BackgroundImageFix"
                      result="effect1_dropShadow_4074_2569"
                    />
                    <feColorMatrix
                      in="SourceAlpha"
                      type="matrix"
                      values="0 0 0 0 0 0 0 0 0 0 0 0 0 0 0 0 0 0 127 0"
                      result="hardAlpha"
                    />
                    <feOffset dy="1" />
                    <feGaussianBlur stdDeviation="1.5" />
                    <feComposite in2="hardAlpha" operator="out" />
                    <feColorMatrix
                      type="matrix"
                      values="0 0 0 0 0 0 0 0 0 0 0 0 0 0 0 0 0 0 0.1 0"
                    />
                    <feBlend
                      mode="normal"
                      in2="effect1_dropShadow_4074_2569"
                      result="effect2_dropShadow_4074_2569"
                    />
                    <feColorMatrix
                      in="SourceAlpha"
                      type="matrix"
                      values="0 0 0 0 0 0 0 0 0 0 0 0 0 0 0 0 0 0 127 0"
                      result="hardAlpha"
                    />
                    <feMorphology
                      radius="1"
                      operator="dilate"
                      in="SourceAlpha"
                      result="effect3_dropShadow_4074_2569"
                    />
                    <feOffset />
                    <feComposite in2="hardAlpha" operator="out" />
                    <feColorMatrix
                      type="matrix"
                      values="0 0 0 0 0 0 0 0 0 0 0 0 0 0 0 0 0 0 0.05 0"
                    />
                    <feBlend
                      mode="normal"
                      in2="effect2_dropShadow_4074_2569"
                      result="effect3_dropShadow_4074_2569"
                    />
                    <feBlend
                      mode="normal"
                      in="SourceGraphic"
                      in2="effect3_dropShadow_4074_2569"
                      result="shape"
                    />
                  </filter>
                </defs>
              </svg>
