<svg width="32" height="16" viewBox="0 0 32 16" fill="none" xmlns="http://www.w3.org/2000/svg">
<g id="optimism logo" clip-path="url(#clip0_4003_409)">
<path id="Vector" d="M6.34983 15.7665C4.62152 15.7665 3.20547 15.3638 2.10168 14.5584C1.01241 13.7387 0.467773 12.5738 0.467773 11.0637C0.467773 10.7473 0.504082 10.359 0.576701 9.89874C0.765507 8.8633 1.03419 7.6193 1.38276 6.16677C2.37037 2.21184 4.91926 0.234375 9.02944 0.234375C10.1478 0.234375 11.1499 0.421335 12.0358 0.795256C12.9218 1.1548 13.6189 1.70129 14.1272 2.43475C14.6355 3.15383 14.8897 4.01672 14.8897 5.02343C14.8897 5.32545 14.8534 5.70656 14.7808 6.16677C14.5629 7.44673 14.3015 8.69074 13.9965 9.89874C13.4882 11.8691 12.6095 13.3431 11.3605 14.3211C10.1114 15.2846 8.44124 15.7665 6.34983 15.7665ZM6.65483 12.66C7.46815 12.66 8.15801 12.4227 8.72447 11.9481C9.30537 11.4735 9.7193 10.7473 9.96618 9.76936C10.3003 8.41745 10.5544 7.23819 10.7287 6.23148C10.7868 5.92947 10.8159 5.62026 10.8159 5.30387C10.8159 3.99515 10.1259 3.34079 8.74621 3.34079C7.9329 3.34079 7.23577 3.57809 6.65483 4.05268C6.08841 4.52727 5.68174 5.25353 5.43485 6.23148C5.17342 7.19504 4.912 8.37435 4.65057 9.76936C4.59247 10.0569 4.56343 10.359 4.56343 10.6753C4.56343 11.9984 5.26056 12.66 6.65483 12.66Z" fill="white"/>
<path id="Vector_2" d="M17.0996 15.5498C16.9397 15.5498 16.8163 15.4995 16.7292 15.3989C16.6566 15.2838 16.6348 15.1544 16.6638 15.0106L19.6702 0.988527C19.6992 0.830329 19.7792 0.700896 19.9099 0.600225C20.0406 0.499554 20.1786 0.449219 20.3238 0.449219L26.1186 0.449219C27.7308 0.449219 29.0234 0.779994 29.9965 1.44155C30.9841 2.1031 31.4779 3.05947 31.4779 4.31067C31.4779 4.6702 31.4343 5.04412 31.3472 5.43242C30.9841 7.0863 30.2506 8.3087 29.1469 9.09975C28.0576 9.89072 26.5616 10.2862 24.659 10.2862H21.718L20.7159 15.0106C20.6868 15.1688 20.6069 15.2981 20.4762 15.3989C20.3455 15.4995 20.2076 15.5498 20.0623 15.5498H17.0996ZM24.8115 7.30922C25.4216 7.30922 25.9517 7.14383 26.4019 6.81305C26.8667 6.48228 27.1716 6.00768 27.3169 5.38928C27.3604 5.14479 27.3823 4.92907 27.3823 4.74211C27.3823 4.32505 27.2588 4.00865 27.0119 3.79293C26.765 3.56283 26.3438 3.44777 25.7484 3.44777H23.1341L22.3062 7.30922H24.8115Z" fill="white"/>
</g>
<defs>
<clipPath id="clip0_4003_409">
<rect width="31.0642" height="15.5321" fill="white" transform="translate(0.467773 0.234375)"/>
</clipPath>
</defs>
</svg>
