<svg width="137" height="48" viewBox="0 0 137 48" fill="none" xmlns="http://www.w3.org/2000/svg">
<rect x="4" width="133.001" height="40" rx="12" fill="#6DEBFE" fill-opacity="0.15"/>
<g filter="url(#filter0_ddd_4074_2574)">
<rect x="12" y="8" width="24.0006" height="24" rx="7" fill="url(#paint0_linear_4074_2574)" shape-rendering="crispEdges"/>
<rect x="12.625" y="8.625" width="22.7506" height="22.75" rx="6.375" stroke="white" stroke-width="1.25" shape-rendering="crispEdges"/>
<g filter="url(#filter1_ddd_4074_2574)">
<rect x="18" y="14" width="12" height="12" rx="6" fill="white" shape-rendering="crispEdges"/>
<path d="M25.7553 21.16L25.7553 18.0586M25.7553 18.0586H22.6539M25.7553 18.0586L22.0537 21.529" stroke="#4DCBE5" stroke-width="1.19798" stroke-linecap="round" stroke-linejoin="round"/>
</g>
</g>
<path d="M48.649 19.536C50.791 20.082 52.415 20.544 52.415 22.784C52.415 24.38 51.211 25.71 48.691 25.71C46.241 25.71 44.379 24.436 44.281 22.168H45.947C46.031 23.442 46.899 24.282 48.691 24.282C50.175 24.282 50.749 23.624 50.749 22.854C50.749 21.664 49.895 21.44 47.921 20.95C46.353 20.558 44.659 19.956 44.659 18.052C44.659 16.274 46.031 15.28 48.215 15.28C50.413 15.28 52.009 16.428 52.149 18.486H50.483C50.329 17.324 49.601 16.708 48.215 16.708C47.025 16.708 46.311 17.156 46.311 17.898C46.311 18.99 47.249 19.186 48.649 19.536ZM57.6624 18.15C59.0204 18.15 60.0704 18.92 60.0704 20.558V25.5H58.5864V20.978C58.5864 20.012 58.1804 19.396 57.1584 19.396C56.0804 19.396 55.3104 20.082 55.3104 21.146V25.5H53.8404V15.49H55.3104V19.27H55.3384C55.7164 18.71 56.4584 18.15 57.6624 18.15ZM66.0206 20.222C66.0206 19.704 65.7126 19.312 64.7326 19.312C63.5566 19.312 63.1226 19.676 63.0526 20.6H61.6246C61.6946 19.228 62.5766 18.15 64.7326 18.15C66.3146 18.15 67.4906 18.752 67.4906 20.656V24.058C67.4906 24.562 67.6026 24.828 68.1766 24.772V25.472C67.8406 25.598 67.6026 25.626 67.3226 25.626C66.5386 25.626 66.1746 25.346 66.0346 24.646H66.0066C65.5586 25.276 64.7466 25.71 63.6406 25.71C62.1846 25.71 61.2886 24.87 61.2886 23.666C61.2886 22.098 62.4506 21.608 64.2426 21.258C65.3486 21.048 66.0206 20.908 66.0206 20.222ZM63.9626 24.548C65.1806 24.548 66.0206 23.946 66.0206 22.784V21.706C65.7826 21.874 65.2086 22.042 64.5226 22.182C63.3046 22.448 62.7726 22.798 62.7726 23.526C62.7726 24.184 63.1646 24.548 63.9626 24.548ZM72.7184 18.178C72.9704 18.178 73.1524 18.192 73.3624 18.22V19.606H73.3344C71.9204 19.368 70.7864 20.32 70.7864 21.846V25.5H69.3164V18.346H70.7864V19.69H70.8144C71.1924 18.794 71.7804 18.178 72.7184 18.178ZM77.5182 24.506C78.7362 24.506 79.2262 23.75 79.3522 23.316H80.8222C80.4582 24.674 79.3942 25.71 77.5602 25.71C75.3342 25.71 73.9762 24.17 73.9762 21.93C73.9762 19.606 75.3342 18.15 77.4902 18.15C79.8002 18.15 80.9342 19.76 80.9342 22.308H75.4462C75.4462 23.512 76.2162 24.506 77.5182 24.506ZM77.4902 19.312C76.3002 19.312 75.4462 20.11 75.4462 21.216H79.4642C79.4642 20.11 78.6802 19.312 77.4902 19.312ZM88.8781 18.15C90.6981 18.15 92.0561 19.578 92.0561 21.93C92.0561 24.282 90.6981 25.71 88.8781 25.71C87.7581 25.71 87.0581 25.178 86.6801 24.646H86.6521V27.936H85.1681V18.346H86.6521V19.186H86.6801C87.0581 18.682 87.7581 18.15 88.8781 18.15ZM88.5981 24.506C89.8861 24.506 90.5721 23.33 90.5721 21.93C90.5721 20.53 89.8861 19.354 88.5981 19.354C87.4081 19.354 86.6661 20.334 86.6661 21.93C86.6661 23.512 87.4081 24.506 88.5981 24.506ZM96.8071 18.178C97.0591 18.178 97.2411 18.192 97.4511 18.22V19.606H97.4231C96.0091 19.368 94.8751 20.32 94.8751 21.846V25.5H93.4051V18.346H94.8751V19.69H94.9031C95.2811 18.794 95.8691 18.178 96.8071 18.178ZM101.663 25.71C99.4229 25.71 98.0649 24.156 98.0649 21.93C98.0649 19.704 99.4229 18.15 101.663 18.15C103.903 18.15 105.261 19.704 105.261 21.93C105.261 24.156 103.903 25.71 101.663 25.71ZM101.663 24.506C103.063 24.506 103.791 23.4 103.791 21.93C103.791 20.446 103.063 19.354 101.663 19.354C100.263 19.354 99.5349 20.446 99.5349 21.93C99.5349 23.4 100.263 24.506 101.663 24.506ZM109.794 16.694C108.842 16.652 108.478 16.75 108.478 17.562V18.346H109.794V19.55H108.478V25.5H106.994V19.55H105.972V18.346H106.994V17.436C106.994 15.924 107.638 15.392 108.814 15.392C109.178 15.392 109.5 15.434 109.794 15.49V16.694ZM111.874 17.142C111.468 17.142 111.048 16.862 111.048 16.358C111.048 15.854 111.468 15.588 111.874 15.588C112.308 15.588 112.714 15.854 112.714 16.358C112.714 16.862 112.308 17.142 111.874 17.142ZM111.146 18.346H112.616V25.5H111.146V18.346ZM114.309 15.49H115.793V25.5H114.309V15.49ZM120.664 24.506C121.882 24.506 122.372 23.75 122.498 23.316H123.968C123.604 24.674 122.54 25.71 120.706 25.71C118.48 25.71 117.122 24.17 117.122 21.93C117.122 19.606 118.48 18.15 120.636 18.15C122.946 18.15 124.08 19.76 124.08 22.308H118.592C118.592 23.512 119.362 24.506 120.664 24.506ZM120.636 19.312C119.446 19.312 118.592 20.11 118.592 21.216H122.61C122.61 20.11 121.826 19.312 120.636 19.312Z" fill="black"/>
<defs>
<filter id="filter0_ddd_4074_2574" x="-0.000157356" y="-0.000105381" width="48.0013" height="48.0003" filterUnits="userSpaceOnUse" color-interpolation-filters="sRGB">
<feFlood flood-opacity="0" result="BackgroundImageFix"/>
<feColorMatrix in="SourceAlpha" type="matrix" values="0 0 0 0 0 0 0 0 0 0 0 0 0 0 0 0 0 0 127 0" result="hardAlpha"/>
<feOffset dy="2.00003"/>
<feGaussianBlur stdDeviation="1.00001"/>
<feComposite in2="hardAlpha" operator="out"/>
<feColorMatrix type="matrix" values="0 0 0 0 0 0 0 0 0 0 0 0 0 0 0 0 0 0 0.075 0"/>
<feBlend mode="normal" in2="BackgroundImageFix" result="effect1_dropShadow_4074_2574"/>
<feColorMatrix in="SourceAlpha" type="matrix" values="0 0 0 0 0 0 0 0 0 0 0 0 0 0 0 0 0 0 127 0" result="hardAlpha"/>
<feOffset dy="4.00005"/>
<feGaussianBlur stdDeviation="6.00008"/>
<feComposite in2="hardAlpha" operator="out"/>
<feColorMatrix type="matrix" values="0 0 0 0 0 0 0 0 0 0 0 0 0 0 0 0 0 0 0.075 0"/>
<feBlend mode="normal" in2="effect1_dropShadow_4074_2574" result="effect2_dropShadow_4074_2574"/>
<feColorMatrix in="SourceAlpha" type="matrix" values="0 0 0 0 0 0 0 0 0 0 0 0 0 0 0 0 0 0 127 0" result="hardAlpha"/>
<feOffset dy="0.204728"/>
<feGaussianBlur stdDeviation="0.307091"/>
<feComposite in2="hardAlpha" operator="out"/>
<feColorMatrix type="matrix" values="0 0 0 0 0 0 0 0 0 0 0 0 0 0 0 0 0 0 0.2 0"/>
<feBlend mode="normal" in2="effect2_dropShadow_4074_2574" result="effect3_dropShadow_4074_2574"/>
<feBlend mode="normal" in="SourceGraphic" in2="effect3_dropShadow_4074_2574" result="shape"/>
</filter>
<filter id="filter1_ddd_4074_2574" x="15" y="12" width="18" height="18" filterUnits="userSpaceOnUse" color-interpolation-filters="sRGB">
<feFlood flood-opacity="0" result="BackgroundImageFix"/>
<feColorMatrix in="SourceAlpha" type="matrix" values="0 0 0 0 0 0 0 0 0 0 0 0 0 0 0 0 0 0 127 0" result="hardAlpha"/>
<feMorphology radius="1" operator="erode" in="SourceAlpha" result="effect1_dropShadow_4074_2574"/>
<feOffset dy="1"/>
<feGaussianBlur stdDeviation="1"/>
<feComposite in2="hardAlpha" operator="out"/>
<feColorMatrix type="matrix" values="0 0 0 0 0 0 0 0 0 0 0 0 0 0 0 0 0 0 0.1 0"/>
<feBlend mode="normal" in2="BackgroundImageFix" result="effect1_dropShadow_4074_2574"/>
<feColorMatrix in="SourceAlpha" type="matrix" values="0 0 0 0 0 0 0 0 0 0 0 0 0 0 0 0 0 0 127 0" result="hardAlpha"/>
<feOffset dy="1"/>
<feGaussianBlur stdDeviation="1.5"/>
<feComposite in2="hardAlpha" operator="out"/>
<feColorMatrix type="matrix" values="0 0 0 0 0 0 0 0 0 0 0 0 0 0 0 0 0 0 0.1 0"/>
<feBlend mode="normal" in2="effect1_dropShadow_4074_2574" result="effect2_dropShadow_4074_2574"/>
<feColorMatrix in="SourceAlpha" type="matrix" values="0 0 0 0 0 0 0 0 0 0 0 0 0 0 0 0 0 0 127 0" result="hardAlpha"/>
<feMorphology radius="1" operator="dilate" in="SourceAlpha" result="effect3_dropShadow_4074_2574"/>
<feOffset/>
<feComposite in2="hardAlpha" operator="out"/>
<feColorMatrix type="matrix" values="0 0 0 0 0 0 0 0 0 0 0 0 0 0 0 0 0 0 0.05 0"/>
<feBlend mode="normal" in2="effect2_dropShadow_4074_2574" result="effect3_dropShadow_4074_2574"/>
<feBlend mode="normal" in="SourceGraphic" in2="effect3_dropShadow_4074_2574" result="shape"/>
</filter>
<linearGradient id="paint0_linear_4074_2574" x1="24.0003" y1="8" x2="24.0003" y2="32" gradientUnits="userSpaceOnUse">
<stop stop-color="#70EEFF"/>
<stop offset="1" stop-color="#5CDAF6"/>
</linearGradient>
</defs>
</svg>
