<svg width="152" height="48" viewBox="0 0 152 48" fill="none" xmlns="http://www.w3.org/2000/svg">
<g filter="url(#filter0_ddd_4074_2579)">
<rect x="12" y="8" width="24.0006" height="24" rx="7" fill="url(#paint0_linear_4074_2579)" shape-rendering="crispEdges"/>
<rect x="12.625" y="8.625" width="22.7506" height="22.75" rx="6.375" stroke="white" stroke-width="1.25" shape-rendering="crispEdges"/>
<g filter="url(#filter1_ddd_4074_2579)">
<path d="M19.5 16.88C19.5 15.8719 19.5 15.3679 19.6839 14.9828C19.8457 14.6441 20.1039 14.3688 20.4214 14.1962C20.7824 14 21.2549 14 22.2 14H25.8C26.7451 14 27.2176 14 27.5786 14.1962C27.8961 14.3688 28.1543 14.6441 28.3161 14.9828C28.5 15.3679 28.5 15.8719 28.5 16.88V23.12C28.5 24.1281 28.5 24.6321 28.3161 25.0172C28.1543 25.3559 27.8961 25.6312 27.5786 25.8038C27.2176 26 26.7451 26 25.8 26H22.2C21.2549 26 20.7824 26 20.4214 25.8038C20.1039 25.6312 19.8457 25.3559 19.6839 25.0172C19.5 24.6321 19.5 24.1281 19.5 23.12V16.88Z" fill="white"/>
</g>
<rect x="20.5" y="16" width="6" height="1" rx="0.5" fill="#DC61F8"/>
<rect x="20.5" y="20" width="3" height="1" rx="0.5" fill="#DC61F8"/>
<rect x="20.5" y="18" width="7" height="1" rx="0.5" fill="#DC61F8"/>
</g>
<path opacity="0.5" d="M48.649 19.536C50.791 20.082 52.415 20.544 52.415 22.784C52.415 24.38 51.211 25.71 48.691 25.71C46.241 25.71 44.379 24.436 44.281 22.168H45.947C46.031 23.442 46.899 24.282 48.691 24.282C50.175 24.282 50.749 23.624 50.749 22.854C50.749 21.664 49.895 21.44 47.921 20.95C46.353 20.558 44.659 19.956 44.659 18.052C44.659 16.274 46.031 15.28 48.215 15.28C50.413 15.28 52.009 16.428 52.149 18.486H50.483C50.329 17.324 49.601 16.708 48.215 16.708C47.025 16.708 46.311 17.156 46.311 17.898C46.311 18.99 47.249 19.186 48.649 19.536ZM57.6624 18.15C59.0204 18.15 60.0704 18.92 60.0704 20.558V25.5H58.5864V20.978C58.5864 20.012 58.1804 19.396 57.1584 19.396C56.0804 19.396 55.3104 20.082 55.3104 21.146V25.5H53.8404V15.49H55.3104V19.27H55.3384C55.7164 18.71 56.4584 18.15 57.6624 18.15ZM66.0206 20.222C66.0206 19.704 65.7126 19.312 64.7326 19.312C63.5566 19.312 63.1226 19.676 63.0526 20.6H61.6246C61.6946 19.228 62.5766 18.15 64.7326 18.15C66.3146 18.15 67.4906 18.752 67.4906 20.656V24.058C67.4906 24.562 67.6026 24.828 68.1766 24.772V25.472C67.8406 25.598 67.6026 25.626 67.3226 25.626C66.5386 25.626 66.1746 25.346 66.0346 24.646H66.0066C65.5586 25.276 64.7466 25.71 63.6406 25.71C62.1846 25.71 61.2886 24.87 61.2886 23.666C61.2886 22.098 62.4506 21.608 64.2426 21.258C65.3486 21.048 66.0206 20.908 66.0206 20.222ZM63.9626 24.548C65.1806 24.548 66.0206 23.946 66.0206 22.784V21.706C65.7826 21.874 65.2086 22.042 64.5226 22.182C63.3046 22.448 62.7726 22.798 62.7726 23.526C62.7726 24.184 63.1646 24.548 63.9626 24.548ZM72.7184 18.178C72.9704 18.178 73.1524 18.192 73.3624 18.22V19.606H73.3344C71.9204 19.368 70.7864 20.32 70.7864 21.846V25.5H69.3164V18.346H70.7864V19.69H70.8144C71.1924 18.794 71.7804 18.178 72.7184 18.178ZM77.5182 24.506C78.7362 24.506 79.2262 23.75 79.3522 23.316H80.8222C80.4582 24.674 79.3942 25.71 77.5602 25.71C75.3342 25.71 73.9762 24.17 73.9762 21.93C73.9762 19.606 75.3342 18.15 77.4902 18.15C79.8002 18.15 80.9342 19.76 80.9342 22.308H75.4462C75.4462 23.512 76.2162 24.506 77.5182 24.506ZM77.4902 19.312C76.3002 19.312 75.4462 20.11 75.4462 21.216H79.4642C79.4642 20.11 78.6802 19.312 77.4902 19.312ZM88.8781 18.15C90.6981 18.15 92.0561 19.578 92.0561 21.93C92.0561 24.282 90.6981 25.71 88.8781 25.71C87.7581 25.71 87.0581 25.178 86.6801 24.646H86.6521V27.936H85.1681V18.346H86.6521V19.186H86.6801C87.0581 18.682 87.7581 18.15 88.8781 18.15ZM88.5981 24.506C89.8861 24.506 90.5721 23.33 90.5721 21.93C90.5721 20.53 89.8861 19.354 88.5981 19.354C87.4081 19.354 86.6661 20.334 86.6661 21.93C86.6661 23.512 87.4081 24.506 88.5981 24.506ZM96.8071 18.178C97.0591 18.178 97.2411 18.192 97.4511 18.22V19.606H97.4231C96.0091 19.368 94.8751 20.32 94.8751 21.846V25.5H93.4051V18.346H94.8751V19.69H94.9031C95.2811 18.794 95.8691 18.178 96.8071 18.178ZM101.663 25.71C99.4229 25.71 98.0649 24.156 98.0649 21.93C98.0649 19.704 99.4229 18.15 101.663 18.15C103.903 18.15 105.261 19.704 105.261 21.93C105.261 24.156 103.903 25.71 101.663 25.71ZM101.663 24.506C103.063 24.506 103.791 23.4 103.791 21.93C103.791 20.446 103.063 19.354 101.663 19.354C100.263 19.354 99.5349 20.446 99.5349 21.93C99.5349 23.4 100.263 24.506 101.663 24.506ZM110.267 18.15C112.087 18.15 113.445 19.578 113.445 21.93C113.445 24.282 112.087 25.71 110.267 25.71C109.147 25.71 108.447 25.178 108.069 24.646H108.041V27.936H106.557V18.346H108.041V19.186H108.069C108.447 18.682 109.147 18.15 110.267 18.15ZM109.987 24.506C111.275 24.506 111.961 23.33 111.961 21.93C111.961 20.53 111.275 19.354 109.987 19.354C108.797 19.354 108.055 20.334 108.055 21.93C108.055 23.512 108.797 24.506 109.987 24.506ZM118.014 25.71C115.774 25.71 114.416 24.156 114.416 21.93C114.416 19.704 115.774 18.15 118.014 18.15C120.254 18.15 121.612 19.704 121.612 21.93C121.612 24.156 120.254 25.71 118.014 25.71ZM118.014 24.506C119.414 24.506 120.142 23.4 120.142 21.93C120.142 20.446 119.414 19.354 118.014 19.354C116.614 19.354 115.886 20.446 115.886 21.93C115.886 23.4 116.614 24.506 118.014 24.506ZM126.002 21.174C127.318 21.482 128.746 21.776 128.746 23.484C128.746 24.856 127.57 25.71 125.834 25.71C123.524 25.71 122.53 24.632 122.46 23.12H123.888C123.958 23.89 124.294 24.548 125.806 24.548C126.828 24.548 127.262 24.044 127.262 23.596C127.262 22.7 126.408 22.63 125.358 22.378C124.224 22.112 122.684 21.888 122.684 20.264C122.684 19.088 123.72 18.15 125.512 18.15C127.458 18.15 128.382 19.2 128.48 20.446H127.052C126.954 19.886 126.674 19.312 125.526 19.312C124.644 19.312 124.168 19.648 124.168 20.152C124.168 20.88 124.966 20.936 126.002 21.174ZM134.405 20.222C134.405 19.704 134.097 19.312 133.117 19.312C131.941 19.312 131.507 19.676 131.437 20.6H130.009C130.079 19.228 130.961 18.15 133.117 18.15C134.699 18.15 135.875 18.752 135.875 20.656V24.058C135.875 24.562 135.987 24.828 136.561 24.772V25.472C136.225 25.598 135.987 25.626 135.707 25.626C134.923 25.626 134.559 25.346 134.419 24.646H134.391C133.943 25.276 133.131 25.71 132.025 25.71C130.569 25.71 129.673 24.87 129.673 23.666C129.673 22.098 130.835 21.608 132.627 21.258C133.733 21.048 134.405 20.908 134.405 20.222ZM132.347 24.548C133.565 24.548 134.405 23.946 134.405 22.784V21.706C134.167 21.874 133.593 22.042 132.907 22.182C131.689 22.448 131.157 22.798 131.157 23.526C131.157 24.184 131.549 24.548 132.347 24.548ZM137.728 15.49H139.212V25.5H137.728V15.49Z" fill="black"/>
<defs>
<filter id="filter0_ddd_4074_2579" x="-0.000157356" y="-0.000105381" width="48.0013" height="48.0003" filterUnits="userSpaceOnUse" color-interpolation-filters="sRGB">
<feFlood flood-opacity="0" result="BackgroundImageFix"/>
<feColorMatrix in="SourceAlpha" type="matrix" values="0 0 0 0 0 0 0 0 0 0 0 0 0 0 0 0 0 0 127 0" result="hardAlpha"/>
<feOffset dy="2.00003"/>
<feGaussianBlur stdDeviation="1.00001"/>
<feComposite in2="hardAlpha" operator="out"/>
<feColorMatrix type="matrix" values="0 0 0 0 0 0 0 0 0 0 0 0 0 0 0 0 0 0 0.075 0"/>
<feBlend mode="normal" in2="BackgroundImageFix" result="effect1_dropShadow_4074_2579"/>
<feColorMatrix in="SourceAlpha" type="matrix" values="0 0 0 0 0 0 0 0 0 0 0 0 0 0 0 0 0 0 127 0" result="hardAlpha"/>
<feOffset dy="4.00005"/>
<feGaussianBlur stdDeviation="6.00008"/>
<feComposite in2="hardAlpha" operator="out"/>
<feColorMatrix type="matrix" values="0 0 0 0 0 0 0 0 0 0 0 0 0 0 0 0 0 0 0.075 0"/>
<feBlend mode="normal" in2="effect1_dropShadow_4074_2579" result="effect2_dropShadow_4074_2579"/>
<feColorMatrix in="SourceAlpha" type="matrix" values="0 0 0 0 0 0 0 0 0 0 0 0 0 0 0 0 0 0 127 0" result="hardAlpha"/>
<feOffset dy="0.204728"/>
<feGaussianBlur stdDeviation="0.307091"/>
<feComposite in2="hardAlpha" operator="out"/>
<feColorMatrix type="matrix" values="0 0 0 0 0 0 0 0 0 0 0 0 0 0 0 0 0 0 0.2 0"/>
<feBlend mode="normal" in2="effect2_dropShadow_4074_2579" result="effect3_dropShadow_4074_2579"/>
<feBlend mode="normal" in="SourceGraphic" in2="effect3_dropShadow_4074_2579" result="shape"/>
</filter>
<filter id="filter1_ddd_4074_2579" x="16.5" y="12" width="15" height="18" filterUnits="userSpaceOnUse" color-interpolation-filters="sRGB">
<feFlood flood-opacity="0" result="BackgroundImageFix"/>
<feColorMatrix in="SourceAlpha" type="matrix" values="0 0 0 0 0 0 0 0 0 0 0 0 0 0 0 0 0 0 127 0" result="hardAlpha"/>
<feMorphology radius="1" operator="erode" in="SourceAlpha" result="effect1_dropShadow_4074_2579"/>
<feOffset dy="1"/>
<feGaussianBlur stdDeviation="1"/>
<feComposite in2="hardAlpha" operator="out"/>
<feColorMatrix type="matrix" values="0 0 0 0 0 0 0 0 0 0 0 0 0 0 0 0 0 0 0.1 0"/>
<feBlend mode="normal" in2="BackgroundImageFix" result="effect1_dropShadow_4074_2579"/>
<feColorMatrix in="SourceAlpha" type="matrix" values="0 0 0 0 0 0 0 0 0 0 0 0 0 0 0 0 0 0 127 0" result="hardAlpha"/>
<feOffset dy="1"/>
<feGaussianBlur stdDeviation="1.5"/>
<feComposite in2="hardAlpha" operator="out"/>
<feColorMatrix type="matrix" values="0 0 0 0 0 0 0 0 0 0 0 0 0 0 0 0 0 0 0.1 0"/>
<feBlend mode="normal" in2="effect1_dropShadow_4074_2579" result="effect2_dropShadow_4074_2579"/>
<feColorMatrix in="SourceAlpha" type="matrix" values="0 0 0 0 0 0 0 0 0 0 0 0 0 0 0 0 0 0 127 0" result="hardAlpha"/>
<feMorphology radius="1" operator="dilate" in="SourceAlpha" result="effect3_dropShadow_4074_2579"/>
<feOffset/>
<feComposite in2="hardAlpha" operator="out"/>
<feColorMatrix type="matrix" values="0 0 0 0 0 0 0 0 0 0 0 0 0 0 0 0 0 0 0.05 0"/>
<feBlend mode="normal" in2="effect2_dropShadow_4074_2579" result="effect3_dropShadow_4074_2579"/>
<feBlend mode="normal" in="SourceGraphic" in2="effect3_dropShadow_4074_2579" result="shape"/>
</filter>
<linearGradient id="paint0_linear_4074_2579" x1="24.0003" y1="8" x2="24.0003" y2="32" gradientUnits="userSpaceOnUse">
<stop stop-color="#FF84FF"/>
<stop offset="1" stop-color="#D75CF6"/>
</linearGradient>
</defs>
</svg>
